<?xml version="1.0" encoding="utf-8"?>
<!-- Generator: Adobe Illustrator 16.0.0, SVG Export Plug-In . SVG Version: 6.00 Build 0)  -->
<!DOCTYPE svg PUBLIC "-//W3C//DTD SVG 1.1//EN" "http://www.w3.org/Graphics/SVG/1.1/DTD/svg11.dtd">
<svg version="1.1" id="Your_Icon" xmlns="http://www.w3.org/2000/svg" xmlns:xlink="http://www.w3.org/1999/xlink" x="0px" y="0px"
	 width="100px" height="100px" viewBox="0 0 100 100" enable-background="new 0 0 100 100" xml:space="preserve">
<g>
	<g>
		<path fill="#FBFBFB" d="M59.657,39.739c0,2.392-1.938,4.327-4.33,4.327s-4.331-1.935-4.331-4.327c0-2.394,1.939-4.332,4.331-4.332
			S59.657,37.345,59.657,39.739z"/>
		<path fill="#FBFBFB" d="M55.327,44.071c-2.392,0-4.336-1.944-4.336-4.333c0-2.392,1.944-4.337,4.336-4.337
			c2.391,0,4.335,1.946,4.335,4.337C59.662,42.127,57.718,44.071,55.327,44.071z M55.327,35.412c-2.386,0-4.325,1.941-4.325,4.327
			c0,2.383,1.939,4.322,4.325,4.322c2.385,0,4.325-1.938,4.325-4.322C59.652,37.353,57.712,35.412,55.327,35.412z"/>
	</g>
	<g>
		<path fill="#FBFBFB" d="M43.378,35.167c0,1.331-1.081,2.415-2.413,2.415c-1.335,0-2.416-1.083-2.416-2.415
			c0-1.336,1.081-2.417,2.416-2.417C42.297,32.75,43.378,33.83,43.378,35.167z"/>
		<path fill="#FBFBFB" d="M40.965,37.586c-1.335,0-2.421-1.085-2.421-2.42s1.086-2.422,2.421-2.422c1.333,0,2.418,1.087,2.418,2.422
			S42.298,37.586,40.965,37.586z M40.965,32.755c-1.329,0-2.411,1.082-2.411,2.412c0,1.329,1.082,2.409,2.411,2.409
			c1.328,0,2.408-1.081,2.408-2.409C43.373,33.836,42.292,32.755,40.965,32.755z"/>
	</g>
	<path fill="#FBFBFB" d="M88.165,9.484c-1.763-4.864-6.412-8.35-11.884-8.35c-5.467,0-10.106,3.474-11.874,8.326
		c-0.255-0.016-0.511-0.03-0.771-0.03c-6.978,0-12.643,5.799-12.643,12.793C50.995,29.201,56.66,35,63.639,35h23.457
		c6.994,0,12.659-5.799,12.659-12.776C99.755,15.591,94.657,10.028,88.165,9.484z M63.635,24.365c-1.265,0-2.285-1.025-2.285-2.286
		c0-1.261,1.021-2.285,2.285-2.285c1.258,0,2.279,1.024,2.279,2.285C65.914,23.34,64.893,24.365,63.635,24.365z M75.366,26.792
		c-0.056-0.133-0.095-0.273-0.146-0.408c0.094,0.008,0.189,0.009,0.284,0.015C75.458,26.528,75.419,26.664,75.366,26.792z
		 M75.654,24.365c-1.264,0-2.286-1.025-2.286-2.286c0-1.261,1.022-2.285,2.286-2.285c1.256,0,2.279,1.024,2.279,2.285
		C77.934,23.34,76.91,24.365,75.654,24.365z M87.102,24.365c-1.263,0-2.283-1.025-2.283-2.286c0-1.261,1.021-2.285,2.283-2.285
		c1.26,0,2.281,1.024,2.281,2.285C89.383,23.34,88.359,24.365,87.102,24.365z"/>
</g>
<g>
	<g>
		<circle fill="#FBFBFB" cx="27.947" cy="45.467" r="1.84"/>
	</g>
	<g>
		<g>
			<path fill="#FBFBFB" d="M13.372,25.108c3.719,0,6.737,3.016,6.737,6.737c0,3.722-3.018,6.738-6.737,6.738
				c-3.722,0-6.74-3.016-6.74-6.738C6.632,28.124,9.649,25.108,13.372,25.108 M13.372,21.958c-5.454,0-9.891,4.435-9.891,9.887
				c0,5.453,4.437,9.889,9.891,9.889c5.45,0,9.887-4.436,9.887-9.889C23.259,26.393,18.822,21.958,13.372,21.958L13.372,21.958z"/>
		</g>
	</g>
	<g>
		<g>
			<path fill="#FBFBFB" d="M17.258,54.587l-6.612-7.83c-0.839-0.993-0.713-2.479,0.279-3.313c0.441-0.375,0.98-0.558,1.519-0.558
				c0.668,0,1.331,0.283,1.794,0.836l4.729,5.598l1.124-3.554l-3.446-4.079c-1.042-1.238-2.577-1.953-4.201-1.953
				c-1.301,0-2.565,0.464-3.558,1.306c-1.115,0.939-1.801,2.269-1.928,3.734C6.835,46.24,7.291,47.666,8.24,48.79l6.218,7.364
				L17.258,54.587z"/>
		</g>
		<g>
			<path fill="#FBFBFB" d="M29.619,63.121c0.119-0.186,0.242-0.366,0.339-0.562L29.619,63.121z"/>
		</g>
	</g>
	<g>
		<path fill="#FBFBFB" d="M19.066,45.348l-2.605-3.939c-0.485,2.286,0.082,4.829,1.784,6.815l-0.006,2.196l0.839-3.992
			C19.068,46.058,19.064,45.696,19.066,45.348z"/>
	</g>
	<g>
		<path fill="#FBFBFB" d="M11.754,71.34"/>
	</g>
	<g>
		<path fill="#FBFBFB" d="M35.896,91.117l-13.183-20.34l0,0l-4.066,0.443l0,0L32.735,92.96c0.049,0.074,0.09,0.151,0.125,0.231
			c0.449,1-0.117,2.283-1.326,2.988c-0.638,0.367-1.358,0.528-2.035,0.444c-0.671-0.083-1.214-0.397-1.53-0.886L11.652,70.551
			c-0.673-1.006-0.104-2.455,1.194-3.216c0.461-0.269,0.964-0.382,1.463-0.415l-0.794-0.789l5.705-0.622
			c-0.757-0.881-1.864-1.467-3.214-1.639c-0.572-0.067-1.161-0.038-1.748,0.039l-6,4.319c-0.509,1.211-0.569,2.496-0.06,3.623
			c0.082,0.188,0.179,0.369,0.293,0.543L24.806,97.58c0.737,1.141,2.003,1.869,3.569,2.062c1.568,0.188,3.246-0.177,4.727-1.037
			C36.128,96.842,37.441,93.514,35.896,91.117z"/>
	</g>
	<g>
		<g>
			<polygon fill="#FBFBFB" points="26.685,52.753 25.722,56.34 25.389,56.652 31.182,63.414 34.977,62.996 			"/>
		</g>
		<g>
			<path fill="#FBFBFB" d="M50.626,57.506L32.325,36.153c-1.549-1.809-3.754-2.843-6.048-2.843c-1.713,0-3.354,0.6-4.621,1.687
				L18.731,37.5c-1.02,0.877-1.707,1.996-2.09,3.213l1.104-1.253l1.617,2.977c0.25-1.044,0.685-1.913,1.419-2.544l2.925-2.504
				c0.71-0.608,1.598-0.928,2.57-0.928c1.373,0,2.707,0.636,3.659,1.743l18.297,21.353c0.829,0.967,1.259,2.166,1.216,3.373
				c-0.042,1.16-0.527,2.195-1.36,2.909l-2.92,2.501c-1.19,1.016-2.94,1.123-4.447,0.473l-4.417,0.48l0.242,0.282
				c1.551,1.811,3.757,2.848,6.05,2.848c1.711,0,3.353-0.601,4.622-1.69l2.923-2.502c1.507-1.291,2.38-3.133,2.458-5.183
				C52.67,61.043,51.973,59.076,50.626,57.506z"/>
		</g>
	</g>
	<g>
		<path fill="#FBFBFB" d="M26.106,45.467l-1.14,6.027l-0.271,1.37c0,0-0.917,3.239-0.917,3.268c0,0.724-0.58,1.214-0.872,1.55
			c-0.605,0.693-2.989,2.152-2.989,2.152h0.002l-12.835,9.24c-0.414,0.298-0.896,0.443-1.374,0.443
			c-0.731,0-1.449-0.341-1.909-0.979c-0.759-1.053-0.521-2.523,0.534-3.285l12.366-8.9l2.931-2.109l0.857-4.366l0,0l2.898-14.742
			c0.165-0.843,0.777-0.631,1.537-0.477v-0.011l0.588,0.092c0.065,0.006,0.131,0.015,0.199,0.015c0.149,0,0.304,0.014,0.457,0.045
			c0.712,0.14,1.271,0.121,1.586,0.292l0.833,0.131c-0.607-0.416-1.297-0.71-2.04-0.856c-0.346-0.067-0.706-0.105-1.062-0.105
			c-2.622,0-4.89,1.869-5.395,4.442l-3.31,13.708L2.494,62.699c-1.192,0.855-1.978,2.13-2.215,3.582
			c-0.233,1.451,0.108,2.908,0.969,4.101c1.027,1.431,2.697,2.287,4.464,2.287c1.161,0,2.273-0.36,3.216-1.04l15.821-11.393
			c1.036-0.741,1.744-1.812,2.072-3.026c0.228-0.446,0.415-0.922,0.513-1.433l2.338-9.832L26.106,45.467z"/>
	</g>
	<g>
		<g>
			<path fill="#FBFBFB" d="M12.448,71.777c-0.938-0.237-1.672-1.248-1.75-2.51c-0.048-0.752,0.14-1.48,0.524-2.058
				c0.384-0.577,0.917-0.928,1.508-0.992l24.033-2.805l0,0l-0.005-3.573L16.89,62.012l-9.102,6.555
				c-0.021,0.338-0.037,0.676-0.014,1.021c0.201,3.302,2.308,5.881,4.902,5.992c0.208,0.008,0.419,0.004,0.628-0.021l1.485-0.16
				L12.448,71.777L12.448,71.777z"/>
		</g>
		<g>
			<path fill="#FBFBFB" d="M46.541,69.747l-2.101,0.787l0.727-2.194l-26.52,2.883l2.274,3.504l22.772-2.487
				c1.371-0.147,2.614-0.968,3.509-2.312c0.34-0.507,0.589-1.078,0.792-1.673L46.541,69.747z"/>
		</g>
	</g>
	<g>
		<circle fill="#FBFBFB" cx="36.763" cy="61.627" r="1.786"/>
	</g>
	<g>
		<path fill="#FBFBFB" d="M29.672,85.271c-0.149,0-0.301-0.021-0.452-0.065c-0.834-0.25-1.308-1.128-1.058-1.961l3.65-12.205
			c0.249-0.834,1.127-1.308,1.96-1.06c0.834,0.25,1.308,1.129,1.058,1.961l-3.65,12.205C30.977,84.831,30.351,85.271,29.672,85.271z
			"/>
	</g>
	<g>
		<path fill="#FBFBFB" d="M55.326,96.441c-0.691,0-1.325-0.459-1.518-1.156l-7.333-26.611c-0.231-0.839,0.262-1.707,1.101-1.938
			c0.837-0.233,1.706,0.262,1.938,1.1l7.333,26.611c0.23,0.839-0.262,1.707-1.101,1.938C55.605,96.424,55.465,96.441,55.326,96.441z
			"/>
	</g>
	<g>
		<path fill="#FBFBFB" d="M55.327,96.441h-18.78c-0.87,0-1.576-0.705-1.576-1.575s0.706-1.575,1.576-1.575h18.78
			c0.87,0,1.575,0.705,1.575,1.575S56.197,96.441,55.327,96.441z"/>
	</g>
</g>
</svg>
