<?xml version="1.0" encoding="utf-8"?>
<!-- Generator: Adobe Illustrator 17.1.0, SVG Export Plug-In . SVG Version: 6.00 Build 0)  -->
<!DOCTYPE svg PUBLIC "-//W3C//DTD SVG 1.1//EN" "http://www.w3.org/Graphics/SVG/1.1/DTD/svg11.dtd">
<svg version="1.1" id="Layer_1" xmlns="http://www.w3.org/2000/svg" xmlns:xlink="http://www.w3.org/1999/xlink" x="0px" y="0px"
	 viewBox="0 0 100 100" enable-background="new 0 0 100 100" xml:space="preserve">
<symbol  id="Check" viewBox="-32 -32 64 64">
	<path fill="#27AE60" d="M22.6,22.6C16.4,28.9,8.2,32,0,32s-16.4-3.1-22.6-9.4c-12.5-12.5-12.5-32.8,0-45.3C-16.4-28.9-8.2-32,0-32
		s16.4,3.1,22.6,9.4C35.1-10.1,35.1,10.1,22.6,22.6z M19.1-19.1C14-24.2,7.2-27,0-27s-14,2.8-19.1,7.9c-10.5,10.5-10.5,27.7,0,38.2
		C-14,24.2-7.2,27,0,27s14-2.8,19.1-7.9C29.6,8.6,29.6-8.6,19.1-19.1z"/>
	<polygon fill="#27AE60" points="-4.4,-1.5 -11,5.6 -18.3,-1.7 -18.3,-1.7 -4.5,-15.4 18.7,7.8 13.4,13.2 	"/>
</symbol>
<use xlink:href="#Check"  width="64" height="64" id="XMLID_1_" x="-32" y="-32" transform="matrix(1.5594 0 0 -1.5594 50 50)" overflow="visible"/>
</svg>
