<?xml version="1.0" encoding="utf-8"?>
<!-- Generator: Adobe Illustrator 16.0.0, SVG Export Plug-In . SVG Version: 6.00 Build 0)  -->
<!DOCTYPE svg PUBLIC "-//W3C//DTD SVG 1.1//EN" "http://www.w3.org/Graphics/SVG/1.1/DTD/svg11.dtd">
<svg version="1.1" id="Layer_1" xmlns="http://www.w3.org/2000/svg" xmlns:xlink="http://www.w3.org/1999/xlink" x="0px" y="0px"
	 width="50px" height="50px" viewBox="0 0 50 50" enable-background="new 0 0 50 50" xml:space="preserve">
<g>
	<path fill="#FBFBFB" d="M21.689,10.266h6.989c1.289,0,2.346,1.059,2.346,2.301v5.099h-1.383v-2.663c0-0.323-0.274-0.6-0.594-0.6
		l0,0c-0.369,0-0.645,0.276-0.645,0.6v2.663h-6.345v-2.663c0-0.323-0.276-0.6-0.643-0.6l0,0c-0.323,0-0.598,0.276-0.598,0.6v2.663
		h-1.518v-5.099C19.299,11.324,20.357,10.266,21.689,10.266L21.689,10.266z M25.183,3.416c1.657,0,2.989,1.334,2.989,2.989
		c0,1.654-1.332,2.987-2.989,2.987c-1.653,0-2.988-1.333-2.988-2.987C22.195,4.75,23.53,3.416,25.183,3.416z"/>
	<path fill="#FBFBFB" d="M7.761,21.987h1.377c1.152,0,2.025,0.921,2.025,2.023v4.137l-2.025,6.621H7.761
		c-1.104,0-2.023-0.918-2.023-2.021V24.01C5.738,22.908,6.658,21.987,7.761,21.987L7.761,21.987z M8.449,15.417
		c1.565,0,2.806,1.284,2.806,2.802c0,1.563-1.24,2.804-2.806,2.804c-1.563,0-2.804-1.241-2.804-2.804
		C5.645,16.701,6.886,15.417,8.449,15.417z"/>
	<path fill="#FBFBFB" d="M40.814,21.987h1.424c1.104,0,2.021,0.921,2.021,2.023v8.737c0,1.103-0.918,2.021-2.021,2.021h-1.057
		l-2.392-7.77V24.01C38.791,22.908,39.709,21.987,40.814,21.987L40.814,21.987z M41.547,15.417c1.518,0,2.809,1.284,2.809,2.802
		c0,1.563-1.291,2.804-2.809,2.804c-1.559,0-2.801-1.241-2.801-2.804C38.746,16.701,39.988,15.417,41.547,15.417z"/>
	<path fill="#FBFBFB" d="M30.469,36.699c-0.457,0-0.873,0.369-0.873,0.826v1.426h1.701v-1.426
		C31.297,37.068,30.932,36.699,30.469,36.699z"/>
	<path fill="#FBFBFB" d="M20.037,36.699c-0.462,0-0.831,0.369-0.831,0.826v1.426h1.703v-1.426
		C20.909,37.068,20.495,36.699,20.037,36.699z"/>
	<path fill="#FBFBFB" d="M40.324,36.088l-4.311-14.655c-0.479-1.53-1.351-2.832-3.005-2.832H17.513
		c-1.655,0-2.568,1.302-3.004,2.832l-4.354,14.655c-0.436,1.531,1.35,2.832,3.004,2.832h4.483v-4.676
		c0-1.662,1.393-3.057,3.091-3.057h9.057c1.694,0,3.045,1.395,3.045,3.057v4.676h4.483C38.973,38.92,40.76,37.619,40.324,36.088z
		 M25.262,30.02c-2.178,0-3.919-1.799-3.919-4.004c0-2.201,1.741-4.001,3.919-4.001c2.132,0,3.875,1.801,3.875,4.001
		C29.137,28.221,27.395,30.02,25.262,30.02z"/>
	<path fill="#FBFBFB" d="M17.137,43.457c0,1.332,0.875,2.438,2.068,2.896v-7.402h-2.068V43.457z"/>
	<path fill="#FBFBFB" d="M31.297,46.307c1.15-0.504,1.885-1.606,1.885-2.85v-4.506h-1.885V46.307z"/>
	<rect x="20.909" y="38.951" fill="#FBFBFB" width="8.687" height="7.633"/>
</g>
</svg>
