<?xml version="1.0" encoding="utf-8"?>
<!-- Generator: Adobe Illustrator 17.1.0, SVG Export Plug-In . SVG Version: 6.00 Build 0)  -->
<!DOCTYPE svg PUBLIC "-//W3C//DTD SVG 1.1//EN" "http://www.w3.org/Graphics/SVG/1.1/DTD/svg11.dtd">
<svg version="1.1" id="Layer_1" xmlns="http://www.w3.org/2000/svg" xmlns:xlink="http://www.w3.org/1999/xlink" x="0px" y="0px"
	 viewBox="0 0 100 100" enable-background="new 0 0 100 100" xml:space="preserve">
<path fill="#547BBC" d="M50,99.9c27.6,0,49.9-22.3,49.9-49.9C99.9,22.4,77.6,0.1,50,0.1C22.4,0.1,0.1,22.4,0.1,50
	C0.1,77.6,22.4,99.9,50,99.9"/>
<path fill="#FFFFFF" d="M38,41.6h5.1v-5c0-2.2,0.1-5.6,1.7-7.7c1.7-2.2,4-3.7,8-3.7c6.5,0,9.2,0.9,9.2,0.9l-1.3,7.6
	c0,0-2.1-0.6-4.1-0.6c-2,0-3.8,0.7-3.8,2.7v5.8H61L60.4,49h-7.6v25.8h-9.6V49H38V41.6z"/>
</svg>
