<?xml version="1.0" encoding="utf-8"?>
<!-- Generator: Adobe Illustrator 17.1.0, SVG Export Plug-In . SVG Version: 6.00 Build 0)  -->
<!DOCTYPE svg PUBLIC "-//W3C//DTD SVG 1.1//EN" "http://www.w3.org/Graphics/SVG/1.1/DTD/svg11.dtd">
<svg version="1.1" id="Layer_1" xmlns="http://www.w3.org/2000/svg" xmlns:xlink="http://www.w3.org/1999/xlink" x="0px" y="0px"
	 viewBox="0 0 100 100" enable-background="new 0 0 100 100" xml:space="preserve">
<path fill="#859563" d="M50,99.9c27.6,0,49.9-22.3,49.9-49.9C99.9,22.4,77.6,0.1,50,0.1C22.4,0.1,0.1,22.4,0.1,50
	C0.1,77.6,22.4,99.9,50,99.9"/>
<path fill="#FFFFFF" d="M71.8,73.3L51.1,25.7C50.9,25.3,50.5,25,50,25l0,0c-0.5,0-0.9,0.3-1,0.7L28.2,73.3c-0.2,0.4-0.1,0.8,0.1,1.1
	c0.2,0.3,0.6,0.5,1,0.5h18.4V64.8l-4.9-3.4l0.8-1.2l4.1,2.9V55h4.7v5.3l4.3-2.2l0.6,1.3l-4.9,2.5v3.9l7.9-4l0.6,1.3l-8.5,4.3V75
	h18.3c0.4,0,0.7-0.2,1-0.5C71.9,74.1,71.9,73.7,71.8,73.3z"/>
</svg>
