<?xml version="1.0" encoding="utf-8"?>
<!-- Generator: Adobe Illustrator 17.1.0, SVG Export Plug-In . SVG Version: 6.00 Build 0)  -->
<!DOCTYPE svg PUBLIC "-//W3C//DTD SVG 1.1//EN" "http://www.w3.org/Graphics/SVG/1.1/DTD/svg11.dtd">
<svg version="1.1" id="Layer_1" xmlns="http://www.w3.org/2000/svg" xmlns:xlink="http://www.w3.org/1999/xlink" x="0px" y="0px"
	 viewBox="0 0 100 100" enable-background="new 0 0 100 100" xml:space="preserve">
<symbol  id="Clock" viewBox="-32 -32 64 64">
	<path fill="#2C3E50" d="M0,32c-17.7,0-32-14.3-32-32s14.3-32,32-32S32-17.7,32,0S17.7,32,0,32z M0-25c-13.8,0-25,11.2-25,25
		s11.2,25,25,25S25,13.8,25,0S13.8-25,0-25z"/>
	<path fill="#2C3E50" d="M15.5,0.8h-14v16.4c0,1.4-1.1,2.5-2.5,2.5c-1.4,0-2.5-1.1-2.5-2.5v-21c0-1.4,1.1-2.5,2.5-2.5
		c0.3,0,0.6,0.1,0.9,0.2c0.1,0,0.1,0,0.2,0h15.3c1.9,0,3.5,1.6,3.5,3.5C19-0.8,17.4,0.8,15.5,0.8z"/>
</symbol>
<use xlink:href="#Clock"  width="64" height="64" id="XMLID_1_" x="-32" y="-32" transform="matrix(1.5633 0 0 -1.5633 50 50)" overflow="visible"/>
</svg>
