<?xml version="1.0" encoding="utf-8"?>
<!-- Generator: Adobe Illustrator 16.0.0, SVG Export Plug-In . SVG Version: 6.00 Build 0)  -->
<!DOCTYPE svg PUBLIC "-//W3C//DTD SVG 1.1//EN" "http://www.w3.org/Graphics/SVG/1.1/DTD/svg11.dtd">
<svg version="1.1" id="Layer_1" xmlns="http://www.w3.org/2000/svg" xmlns:xlink="http://www.w3.org/1999/xlink" x="0px" y="0px"
	 width="100px" height="100px" viewBox="0 0 100 100" enable-background="new 0 0 100 100" xml:space="preserve">
<polygon fill="#FBFBFB" points="61.398,72.915 48.53,77.204 52.82,64.337 91.422,25.734 100,34.313 "/>
<path fill="#FBFBFB" d="M48.53,34.834c0-11.279-7.763-20.687-18.199-23.4v6.315c7.047,2.518,12.133,9.188,12.133,17.085
	c0,4.135-1.419,7.915-3.762,10.96l-7.932-7.927l-6.504,24.266l24.264-6.517L43.012,50.1C46.442,45.942,48.53,40.652,48.53,34.834z"
	/>
<path fill="#FBFBFB" d="M6.067,34.834c0-4.134,1.421-7.915,3.765-10.959l7.93,7.926l6.505-24.265L0,14.047l5.519,5.515
	C2.088,23.72,0,29.017,0,34.834c0,11.28,7.764,20.688,18.199,23.4v-6.321C11.153,49.402,6.067,42.731,6.067,34.834z"/>
<g>
	<path fill="#FBFBFB" d="M53.898,19.669h18.896v11.824l6.066-6.066V13.602H49.834C51.4,15.478,52.771,17.495,53.898,19.669z"/>
	<path fill="#FBFBFB" d="M72.796,74.384v12.015h-48.53V71.232c-2.225,0-4.378-0.849-6.067-2.365v23.597h60.662V68.316L72.796,74.384
		z"/>
</g>
<path fill="#FBFBFB" d="M48.53,34.834c0-11.279-7.763-20.687-18.199-23.4v6.315c7.047,2.518,12.133,9.188,12.133,17.085
	c0,4.135-1.419,7.915-3.762,10.96l-7.932-7.927l-6.504,24.266l24.264-6.517L43.012,50.1C46.442,45.942,48.53,40.652,48.53,34.834z"
	/>
<path fill="#FBFBFB" d="M6.067,34.834c0-4.134,1.421-7.915,3.765-10.959l7.93,7.926l6.505-24.265L0,14.047l5.519,5.515
	C2.088,23.72,0,29.017,0,34.834c0,11.28,7.764,20.688,18.199,23.4v-6.321C11.153,49.402,6.067,42.731,6.067,34.834z"/>
</svg>
