<?xml version="1.0" encoding="utf-8"?>
<!-- Generator: Adobe Illustrator 17.1.0, SVG Export Plug-In . SVG Version: 6.00 Build 0)  -->
<!DOCTYPE svg PUBLIC "-//W3C//DTD SVG 1.1//EN" "http://www.w3.org/Graphics/SVG/1.1/DTD/svg11.dtd">
<svg version="1.1" id="Layer_1" xmlns="http://www.w3.org/2000/svg" xmlns:xlink="http://www.w3.org/1999/xlink" x="0px" y="0px"
	 viewBox="0 0 100 100" enable-background="new 0 0 100 100" xml:space="preserve">
<path fill="#1384C7" d="M50,99.8c27.5,0,49.8-22.3,49.8-49.8C99.8,22.5,77.5,0.2,50,0.2C22.5,0.2,0.2,22.5,0.2,50
	C0.2,77.5,22.5,99.8,50,99.8"/>
<path fill="#FFFFFF" d="M36.6,71.2h-9.7V40.1h9.7V71.2z M31.5,36.2L31.5,36.2c-3.6,0-5.9-2.4-5.9-5.4c0-3.1,2.3-5.4,5.9-5.4
	c3.6,0,5.8,2.3,5.9,5.4C37.4,33.9,35.2,36.2,31.5,36.2z M75.5,71.2h-11V55.1c0-4.2-1.7-7.1-5.5-7.1c-2.9,0-4.5,1.9-5.3,3.8
	c-0.3,0.7-0.2,1.6-0.2,2.5v16.8H42.5c0,0,0.1-28.5,0-31.1h10.9V45c0.6-2.1,4.1-5.2,9.7-5.2c6.9,0,12.3,4.5,12.3,14.1V71.2z"/>
</svg>
