<?xml version="1.0" encoding="utf-8"?>
<!-- Generator: Adobe Illustrator 18.1.0, SVG Export Plug-In . SVG Version: 6.00 Build 0)  -->
<!DOCTYPE svg PUBLIC "-//W3C//DTD SVG 1.1//EN" "http://www.w3.org/Graphics/SVG/1.1/DTD/svg11.dtd">
<svg version="1.1" id="Layer_1" xmlns="http://www.w3.org/2000/svg" xmlns:xlink="http://www.w3.org/1999/xlink" x="0px" y="0px"
	 viewBox="0 0 100 100" enable-background="new 0 0 100 100" xml:space="preserve">
<path fill="#1ABC9C" d="M50,99.5c27.3,0,49.5-22.1,49.5-49.5S77.3,0.5,50,0.5S0.5,22.6,0.5,50S22.6,99.5,50,99.5"/>
<g>
	<path fill="none" stroke="#FFFFFF" stroke-width="4" stroke-miterlimit="10" d="M73.2,33.2c0.6,0,1,0.5,1,1v31.5c0,0.6-0.4,1-1,1
		H26.8c-0.5,0-1-0.4-1-1V34.2c0-0.5,0.5-1,1-1L73.2,33.2L73.2,33.2z"/>
</g>
<g>
	<path fill="none" stroke="#FFFFFF" stroke-width="4" stroke-miterlimit="10" d="M69.9,33.3c2.3,0,4.2,0.2,4.2,0.4
		c0,0.2-1.2,1.8-2.9,3.4L53.3,56.1c-1.5,1.7-4.2,1.7-5.7,0L28.9,36.5c-1.5-1.7-1-3,1.2-3h39.8L69.9,33.3L69.9,33.3z"/>
</g>
</svg>
