<?xml version="1.0" encoding="utf-8"?>
<!-- Generator: Adobe Illustrator 17.1.0, SVG Export Plug-In . SVG Version: 6.00 Build 0)  -->
<!DOCTYPE svg PUBLIC "-//W3C//DTD SVG 1.1//EN" "http://www.w3.org/Graphics/SVG/1.1/DTD/svg11.dtd">
<svg version="1.1" id="Layer_1" xmlns="http://www.w3.org/2000/svg" xmlns:xlink="http://www.w3.org/1999/xlink" x="0px" y="0px"
	 viewBox="0 0 400 400" enable-background="new 0 0 400 400" xml:space="preserve">
<path fill="#FA4133" d="M200,397.9c109.4,0,197.9-88.4,197.9-197.9S309.4,2.1,200,2.1S2.1,90.6,2.1,200S90.6,397.9,200,397.9"/>
<g>
	<path fill="none" stroke="#FFFFFF" stroke-width="13" stroke-miterlimit="10" d="M292.8,133c2.4,0,4,2,4,4v126.1c0,2.4-1.6,4-4,4
		H107.2c-2,0-4-1.6-4-4V136.9c0-2,2-4,4-4H292.8z"/>
</g>
<g>
	<path fill="none" stroke="#FFFFFF" stroke-width="13" stroke-miterlimit="10" d="M279.6,133.4c9.1,0,16.6,0.8,16.6,1.7
		c0,0.8-5,7.1-11.6,13.7l-71.5,75.6c-6.2,6.6-16.6,6.6-22.9,0l-74.8-78.5c-6.2-6.6-4.2-12,5-12h159.1V133.4z"/>
</g>
</svg>
