<?xml version="1.0" encoding="utf-8"?>
<!-- Generator: Adobe Illustrator 17.1.0, SVG Export Plug-In . SVG Version: 6.00 Build 0)  -->
<!DOCTYPE svg PUBLIC "-//W3C//DTD SVG 1.1//EN" "http://www.w3.org/Graphics/SVG/1.1/DTD/svg11.dtd">
<svg version="1.1" id="Layer_1" xmlns="http://www.w3.org/2000/svg" xmlns:xlink="http://www.w3.org/1999/xlink" x="0px" y="0px"
	 viewBox="0 0 100 100" enable-background="new 0 0 100 100" xml:space="preserve">
<text transform="matrix(1 0 0 1 0.6988 90.46)" fill="#FFFFFF" font-family="'ProximaNova-Light'" font-size="36">MENU</text>
<path fill="#FFFFFF" d="M100,5c0,2.8-2.2,5-5,5H5c-2.8,0-5-2.2-5-5l0,0c0-2.8,2.2-5,5-5h90C97.8,0,100,2.2,100,5L100,5z"/>
<path fill="#FFFFFF" d="M100,30c0,2.8-2.2,5-5,5H5c-2.8,0-5-2.2-5-5l0,0c0-2.8,2.2-5,5-5h90C97.8,25,100,27.2,100,30L100,30z"/>
<path fill="#FFFFFF" d="M100,55c0,2.8-2.2,5-5,5H5c-2.8,0-5-2.2-5-5l0,0c0-2.8,2.2-5,5-5h90C97.8,50,100,52.2,100,55L100,55z"/>
</svg>
