<?xml version="1.0" encoding="utf-8"?>
<!-- Generator: Adobe Illustrator 17.1.0, SVG Export Plug-In . SVG Version: 6.00 Build 0)  -->
<!DOCTYPE svg PUBLIC "-//W3C//DTD SVG 1.1//EN" "http://www.w3.org/Graphics/SVG/1.1/DTD/svg11.dtd">
<svg version="1.1" id="Layer_1" xmlns="http://www.w3.org/2000/svg" xmlns:xlink="http://www.w3.org/1999/xlink" x="0px" y="0px"
	 viewBox="0 0 430 325" enable-background="new 0 0 430 325" xml:space="preserve">
<g>
	<path fill="#FFFFFF" stroke="#FFFFFF" stroke-width="10" stroke-miterlimit="10" d="M167,49.3c-4.1,6.9-8.3,13.8-12.4,20.8
		c-11.6,19.5-23.6,38.7-37.8,56.5C106.3,139.6,95,151.9,81,161.4c-13.5,9.2-28.2,15.4-44.9,14.6c-8.5-0.4-17-1.1-25.6-1.8
		c-1-0.1-2-0.8-2.8-2c0.8-0.1,1.6-0.5,2.3-0.3c10.4,1.7,20.6,1.1,31-0.1c9.2-1.1,17.6-3.7,25.3-8.2c10.9-6.2,20.1-14.7,28.5-24
		c20.7-23.2,35.6-50.2,50.6-77.1c4.1-7.4,9.3-14.2,14.4-21c3.5-4.6,7-5.4,10.9-3.3c1.4,0.7,2.9,2.2,3.3,3.6c1,3.5,1.8,7.1,1.8,10.7
		c-0.3,13.1-0.9,26.1-1.4,39.2c0,1.1,0,2.2,0,3.3c0,0.3,0.3,0.6,0.7,1.1c0.4-0.7,0.7-1.1,1-1.6c7.4-12.8,21.1-12.3,29.4-0.8
		c4.8,6.6,8.3,13.9,10.3,21.8c2.5,9.4,5.5,18.7,7.6,28.2c2.4,10.9,4.2,22,6.2,33.1c0.1,0.5,0.2,0.9,0.6,2.4c0.4-1.9,0.6-2.8,0.7-3.7
		c1.1-9.9,1.7-20,3.3-29.8c2.5-15.2,5.6-30.4,10.3-45.2c4.2-13.3,8.7-26.6,16-38.5c4.2-6.8,9.1-13.7,15.1-18.9
		c11.2-9.6,23-6.8,30.3,7.5c5.2,10.2,8.7,21.1,10.9,32.4c2.9,15.3,6.1,30.5,8.8,45.8c1.9,10.3,2.9,20.8,5,31
		c2.8,14,5.8,27.9,9.5,41.7c2.4,8.7,5.7,17.2,11.3,24.6c4.9,6.5,11,11.2,18.5,14.1c12.9,4.9,26.4,4.2,39.8,4.6
		c3,0.1,6.1,0.5,8.8,1.6c3.3,1.4,4.4,4.6,3.6,8c-0.7,3.3-2.7,5.9-6.4,6.1c-4.1,0.3-8.3,0.4-12.5,0.3c-7.5-0.1-15,0.2-22.4-0.9
		c-17.5-2.6-32.5-10.2-42.9-25.2c-6.6-9.6-10.7-20.3-13.6-31.5c-5.4-21.1-8.2-42.6-10.7-64.2c-1.5-12.9-2.7-25.8-4.9-38.5
		c-2.3-13.1-5.5-26.1-8.7-39.1c-0.8-3.5-2.9-6.7-4.8-9.8c-2.2-3.6-6.3-4.2-8.8-0.9c-5.1,6.6-10,13.4-14.1,20.6
		c-8,14.3-13.8,29.8-18,45.6c-4,14.9-6.7,30.1-9.5,45.3c-2.4,12.7-4.2,25.5-6.1,38.4c-0.8,5.2-1.3,10.4-1.6,15.7
		c-0.7,13.8-1.1,27.6-1.7,41.4c-0.2,3.3-0.5,6.6-1.4,9.7c-0.3,1.3-2,3.1-3.2,3.2c-1.4,0.1-3.9-1.1-4.3-2.2c-1.4-4.1-2.6-8.4-3-12.7
		c-1.4-18.8-2.4-37.6-3.7-56.4c-0.8-11.5-1.4-23-3.1-34.3c-2.4-15.8-5.2-31.5-8.8-47c-1.8-7.8-4.9-15.5-10.5-21.8
		c-4.7-5.2-9-4.5-11,2.2c-2.4,7.9-4.4,16-6.1,24c-2.5,11.5-5,23-7,34.6c-2.5,14.5-5.2,29.1-6.7,43.8c-1.7,16.4-1.9,32.9-3.3,49.3
		c-0.9,11-2.7,22-4.2,33c-0.4,2.7-2,5.1-4.6,4.6c-1.9-0.4-4.4-2.8-4.8-4.6c-1-6-1.8-12.2-1.6-18.2c0.9-24,1.9-47.9,3.5-71.9
		c0.9-14.1,2.7-28.2,4.5-42.2c1.5-12.1,3.9-24,5.4-36.1c2.5-19.6,6.4-39.1,6.6-59c0-2.1,0-4.1,0-6.2C167.9,49.5,167.4,49.4,167,49.3
		z"/>
</g>
</svg>
