<?xml version="1.0" encoding="utf-8"?>
<!-- Generator: Adobe Illustrator 18.1.0, SVG Export Plug-In . SVG Version: 6.00 Build 0)  -->
<!DOCTYPE svg PUBLIC "-//W3C//DTD SVG 1.1//EN" "http://www.w3.org/Graphics/SVG/1.1/DTD/svg11.dtd">
<svg version="1.1" id="Layer_1" xmlns="http://www.w3.org/2000/svg" xmlns:xlink="http://www.w3.org/1999/xlink" x="0px" y="0px"
	 viewBox="0 0 100 100" enable-background="new 0 0 100 100" xml:space="preserve">
<g>
	<path fill="#65CCEF" d="M50,99.9c27.6,0,49.9-22.3,49.9-49.9C99.9,22.4,77.6,0.1,50,0.1C22.4,0.1,0.1,22.4,0.1,50
		C0.1,77.6,22.4,99.9,50,99.9"/>
	<path fill="#FFFFFF" d="M75,36.9c-1.8,0.8-3.8,1.4-5.9,1.6c2.1-1.3,3.7-3.3,4.5-5.7c-2,1.2-4.2,2-6.5,2.5c-1.9-2-4.5-3.2-7.5-3.2
		c-5.7,0-10.3,4.6-10.3,10.3c0,0.8,0.1,1.6,0.3,2.3c-8.5-0.4-16.1-4.5-21.1-10.7c-0.9,1.5-1.4,3.3-1.4,5.2c0,3.6,1.8,6.7,4.6,8.5
		c-1.7-0.1-3.3-0.5-4.6-1.3v0.1c0,5,3.5,9.1,8.2,10.1c-0.9,0.2-1.8,0.4-2.7,0.4c-0.7,0-1.3-0.1-1.9-0.2c1.3,4.1,5.1,7,9.6,7.1
		c-3.5,2.8-7.9,4.4-12.7,4.4c-0.8,0-1.6,0-2.4-0.1c4.5,2.9,9.9,4.6,15.7,4.6c18.9,0,29.2-15.6,29.2-29.2c0-0.4,0-0.9,0-1.3
		C71.9,40.8,73.7,39,75,36.9"/>
</g>
</svg>
