<?xml version="1.0" encoding="utf-8"?>
<!-- Generator: Adobe Illustrator 16.0.0, SVG Export Plug-In . SVG Version: 6.00 Build 0)  -->
<!DOCTYPE svg PUBLIC "-//W3C//DTD SVG 1.1//EN" "http://www.w3.org/Graphics/SVG/1.1/DTD/svg11.dtd">
<svg version="1.1" id="Ebene_2" xmlns="http://www.w3.org/2000/svg" xmlns:xlink="http://www.w3.org/1999/xlink" x="0px" y="0px"
	 width="100px" height="100px" viewBox="0 0 100 100" enable-background="new 0 0 100 100" xml:space="preserve">
<g>
	<path fill="#FBFBFB" d="M83,44.664V69.84c0,3.98-4.064,7.16-8.057,7.16h-37.18c-0.349,1-0.711,2.164-1.169,3.131
		C33.438,86.799,28,91.998,21,94.984v-0.118c1-1.226,0.492-2.578,0.492-3.935c0-4.367-2.038-8.302-5.194-10.849
		c-2.031-1.644-4.538-2.749-7.266-3.047c-0.029,0,0.169,0,0.14-0.011C5.568,76.619,3,73.543,3,69.84V25.561
		C3,21.579,5.769,18,9.76,18h45.991c0.896-1,2.11-2,3.524-3H9.76C4.126,15,0,19.927,0,25.561V69.84c0,3.126,1.187,5.934,3.407,7.794
		c1.503,1.285,3.271,2.132,5.342,2.36c0.02,0-0.006,0,0.023,0.01c5.475,0.598,9.718,5.246,9.718,10.88
		c0,1.832-0.462,3.564-1.259,5.077c-0.747,1.413-1.789,2.639-3.042,3.614l-0.014,0.01c1.712-0.22,3.373-0.595,4.986-1.073
		C28.507,95.756,36.091,89,39.824,80h35.121C80.579,80,86,75.475,86,69.84V41.13C85,42.554,84,43.768,83,44.664z"/>
	<path fill="#FBFBFB" d="M93.352,17H84V7.075c0-3.684-2.826-6.66-6.5-6.66S71,3.392,71,7.075v8.272V17h-7.346
		c-1.313,0-2.549,0.528-3.584,1.165c-1.84,1.125-3.065,3.07-3.065,5.419c0,3.673,2.978,6.416,6.649,6.416H71v6.76
		c0,3.674,2.41,6.649,6.084,6.649c2.359,0,4.572-1.224,5.697-3.075C83.418,39.299,84,38.084,84,36.76V30h1.157h8.192
		c3.674,0,6.649-2.827,6.649-6.5C100,19.826,97.023,17,93.352,17z"/>
</g>
</svg>
