<svg xmlns="http://www.w3.org/2000/svg" xmlns:xlink="http://www.w3.org/1999/xlink" version="1.1" id="Layer_1" x="0px" y="0px" width="100px" height="100px" viewBox="0 0 100 100" enable-background="new 0 0 100 100" xml:space="preserve">
<g>
	<path fill="#000000" d="M67.662,13.879c-0.871,0.036-1.689,0.121-2.413,0.197C65.973,14,66.791,13.915,67.662,13.879L67.662,13.879   z"/>
	<path fill="#000000" d="M63.843,14.204c-0.179,0.036-0.358,0.076-0.54,0.117c0.188-0.042,0.369-0.082,0.551-0.118   C63.852,14.203,63.848,14.203,63.843,14.204z"/>
	<path fill="#000000" d="M63.865,14.201c-0.004,0.001-0.008,0.002-0.012,0.002c0.139-0.009,0.287-0.022,0.435-0.035   C64.145,14.18,64.001,14.192,63.865,14.201z"/>
	<path fill="#000000" d="M80.665,28.278c-1.035-0.904-2.474-1.363-4.274-1.363c-0.279,0-0.597,0.015-0.969,0.046   c-1.248,0.101-2.619,0.393-4.084,0.868c-0.352,7.648-5.268,18.187-13.302,28.432c-1.063,1.354-2.157,2.679-3.253,3.936   c-1.654,1.895-3.402,3.741-5.194,5.491c-6.605,6.449-13.536,11.311-19.621,13.771c0.185,2.041,0.861,3.585,2.013,4.591   c1.036,0.904,2.474,1.362,4.275,1.362c7.82,0,20.113-8.062,30.587-20.062c1.252-1.436,2.468-2.914,3.616-4.401   c4.902-6.349,8.568-12.794,10.602-18.638c0.131-0.379,0.254-0.751,0.369-1.12v-0.001C83.381,34.994,83.107,30.41,80.665,28.278z"/>
	<path fill="#000000" d="M81.061,42.306c0.133-0.379,0.254-0.751,0.369-1.12v-0.002v0.001   C81.314,41.555,81.191,41.927,81.061,42.306z"/>
	<path fill="#000000" d="M58.8,74.575c-0.012,0.011-0.024,0.021-0.038,0.032c-0.015,0.016-0.029,0.03-0.045,0.048l0.248,0.258   c0.029-0.025,0.059-0.052,0.088-0.076L58.8,74.575z"/>
	<path fill="#000000" d="M81.589,22.881c-0.073-0.056-0.146-0.112-0.22-0.165c-0.518-0.374-0.785-0.962-0.779-1.555   c-0.238-0.375-0.479-0.73-0.719-1.066c-0.333,0.599-0.965,0.979-1.648,0.979c-0.16,0-0.324-0.021-0.486-0.063   c-0.133-0.035-0.267-0.069-0.399-0.099c-1.021-0.235-1.653-1.252-1.42-2.271c0.169-0.733,0.746-1.263,1.437-1.417   c-3.222-2.928-6.475-3.358-8.886-3.358c-0.272,0-0.541,0.006-0.804,0.017c-0.871,0.036-1.689,0.121-2.413,0.197   c-0.257,0.027-0.506,0.053-0.746,0.075c-0.073,0.007-0.144,0.011-0.215,0.018c-0.146,0.012-0.296,0.026-0.437,0.035   c-0.182,0.036-0.363,0.076-0.551,0.118c-8.758,2.027-20.369,10.353-30.298,21.728c-10.279,11.773-16.98,24.681-17.49,33.681   l-0.008,0.137c-0.012,0.252-0.021,0.5-0.023,0.743l-0.003,0.079c-0.028,0.354-0.068,0.746-0.112,1.166   c-0.398,3.793-0.976,9.367,5.581,14.303c0.189-0.377,0.497-0.696,0.912-0.883c0.953-0.426,2.075,0.002,2.502,0.957   c0.058,0.13,0.118,0.26,0.18,0.39c0.273,0.574,0.228,1.215-0.058,1.731c2.822,1.445,5.605,2.164,8.46,2.164   c4.611,0,8.936-1.916,12.823-4.352c-3.499,1.596-6.731,2.438-9.511,2.438c-2.596,0-4.742-0.724-6.376-2.149   c-1.805-1.576-2.841-3.872-3.079-6.825c-0.243-2.999,0.352-6.586,1.768-10.658c0.205-0.591,0.444-1.227,0.751-1.998   c2.818-7.078,7.817-14.925,14.075-22.095c5.139-5.885,10.835-10.984,16.472-14.746c5.789-3.863,11.146-6.063,15.496-6.37   c0.383-0.027,0.719-0.04,1.025-0.04c2.599,0,4.742,0.724,6.377,2.151c0.068,0.061,0.14,0.123,0.207,0.186   C82.615,24.999,82.15,23.94,81.589,22.881z M19.154,71.863c0.025-0.164,0.052-0.329,0.08-0.494   c0.175-1.031,1.155-1.727,2.184-1.553c1.032,0.176,1.726,1.151,1.552,2.185c-0.025,0.146-0.049,0.294-0.072,0.44   c-0.144,0.936-0.951,1.604-1.87,1.604c-0.096,0-0.193-0.008-0.291-0.022C19.704,73.865,18.995,72.896,19.154,71.863z M18.734,77.35   l-0.001-0.231l0.001-0.265c0.005-1.043,0.853-1.884,1.894-1.884c0.003,0,0.007,0,0.01,0c1.046,0.005,1.89,0.858,1.884,1.904   l-0.001,0.242l0.001,0.209c0.007,1.046-0.836,1.899-1.882,1.905c-0.004,0-0.009,0-0.013,0C19.587,79.23,18.741,78.391,18.734,77.35   z M21.569,84.359c-0.133,0.027-0.266,0.043-0.396,0.043c-0.875,0-1.661-0.609-1.851-1.5c-0.036-0.168-0.07-0.336-0.104-0.504   c-0.196-1.027,0.479-2.021,1.507-2.215c1.021-0.192,2.02,0.479,2.215,1.506c0.027,0.143,0.056,0.283,0.086,0.424   C23.245,83.137,22.593,84.143,21.569,84.359z M24.116,67.168l-0.129,0.436c-0.24,0.828-0.997,1.365-1.817,1.365   c-0.175,0-0.353-0.022-0.53-0.074c-1.004-0.293-1.582-1.344-1.29-2.349c0.045-0.157,0.092-0.313,0.14-0.473   c0.302-1.001,1.359-1.566,2.361-1.267C23.851,65.109,24.418,66.166,24.116,67.168z M25.814,62.452   c-0.058,0.139-0.115,0.278-0.172,0.417c-0.298,0.736-1.007,1.184-1.756,1.184c-0.237,0-0.478-0.045-0.711-0.14   c-0.969-0.394-1.437-1.497-1.044-2.466c0.062-0.154,0.125-0.307,0.188-0.46c0.405-0.964,1.516-1.417,2.479-1.015   C25.764,60.378,26.219,61.487,25.814,62.452z M27.96,57.875l-0.21,0.409c-0.335,0.655-0.999,1.034-1.689,1.034   c-0.29,0-0.583-0.067-0.859-0.209c-0.932-0.476-1.302-1.614-0.827-2.547l0.224-0.437c0.482-0.929,1.626-1.289,2.554-0.808   C28.081,55.804,28.443,56.947,27.96,57.875z M30.467,53.463l-0.242,0.396c-0.357,0.586-0.98,0.91-1.62,0.91   c-0.335,0-0.675-0.091-0.983-0.276c-0.893-0.544-1.177-1.709-0.633-2.603l0.251-0.412c0.548-0.894,1.714-1.169,2.606-0.621   C30.737,51.406,31.016,52.572,30.467,53.463z M33.275,49.225L33.01,49.6c-0.369,0.525-0.956,0.807-1.552,0.807   c-0.375,0-0.755-0.111-1.086-0.344c-0.856-0.601-1.063-1.782-0.463-2.638l0.279-0.395c0.607-0.854,1.79-1.052,2.641-0.446   C33.682,47.189,33.881,48.372,33.275,49.225z M36.349,45.156l-0.29,0.363c-0.374,0.471-0.927,0.716-1.485,0.716   c-0.413,0-0.828-0.134-1.176-0.411c-0.82-0.65-0.956-1.842-0.306-2.661l0.301-0.377c0.654-0.816,1.845-0.948,2.663-0.293   C36.872,43.147,37.003,44.339,36.349,45.156z M39.658,41.269l-0.31,0.345c-0.374,0.42-0.894,0.635-1.415,0.635   c-0.449,0-0.898-0.158-1.259-0.479c-0.782-0.696-0.851-1.894-0.155-2.675l0.325-0.363c0.702-0.777,1.899-0.838,2.675-0.138   C40.297,39.294,40.359,40.491,39.658,41.269z M43.183,37.572l-0.327,0.326c-0.37,0.372-0.855,0.558-1.342,0.558   c-0.484,0-0.967-0.184-1.336-0.552c-0.741-0.738-0.744-1.938-0.005-2.679l0.343-0.343c0.742-0.736,1.941-0.732,2.679,0.011   C43.93,35.636,43.925,36.835,43.183,37.572z M46.91,34.086l-0.349,0.308c-0.36,0.322-0.811,0.48-1.259,0.48   c-0.521,0-1.041-0.214-1.415-0.635c-0.696-0.781-0.626-1.979,0.156-2.674l0.36-0.319c0.784-0.692,1.981-0.618,2.674,0.167   C47.769,32.196,47.695,33.394,46.91,34.086z M50.837,30.833l-0.37,0.289c-0.347,0.271-0.759,0.404-1.167,0.404   c-0.562,0-1.118-0.249-1.492-0.725c-0.646-0.823-0.502-2.014,0.321-2.66l0.376-0.295c0.825-0.644,2.015-0.497,2.659,0.328   C51.809,28.999,51.662,30.189,50.837,30.833z M54.951,27.857l-0.387,0.26c-0.325,0.221-0.695,0.327-1.062,0.327   c-0.605,0-1.203-0.291-1.568-0.831c-0.586-0.866-0.361-2.044,0.504-2.631l0.399-0.271c0.869-0.582,2.045-0.352,2.628,0.517   C56.051,26.098,55.818,27.274,54.951,27.857z M59.256,25.217l-0.396,0.223c-0.295,0.167-0.614,0.247-0.933,0.247   c-0.659,0-1.301-0.345-1.649-0.959c-0.516-0.91-0.195-2.066,0.715-2.583c0.145-0.081,0.285-0.162,0.431-0.241   c0.917-0.506,2.068-0.176,2.574,0.739C60.502,23.559,60.171,24.711,59.256,25.217z M63.758,23.002l-0.418,0.182   c-0.248,0.108-0.507,0.16-0.762,0.16c-0.729,0-1.422-0.423-1.734-1.132c-0.421-0.958,0.016-2.076,0.973-2.497l0.451-0.195   c0.961-0.411,2.075,0.034,2.486,0.996C65.166,21.477,64.72,22.59,63.758,23.002z M68.417,21.376   c-0.144,0.039-0.288,0.078-0.433,0.119c-0.172,0.048-0.344,0.071-0.517,0.071c-0.825,0-1.587-0.545-1.819-1.381   c-0.284-1.007,0.302-2.053,1.309-2.337c0.161-0.045,0.32-0.089,0.48-0.132c1.008-0.271,2.049,0.33,2.318,1.34   C70.027,20.068,69.428,21.106,68.417,21.376z M73.155,20.588c-0.145,0.008-0.285,0.017-0.431,0.028   c-0.05,0.004-0.098,0.006-0.146,0.006c-0.98,0-1.812-0.756-1.889-1.751c-0.078-1.043,0.703-1.953,1.746-2.032   c0.172-0.014,0.346-0.024,0.518-0.033c1.038-0.055,1.938,0.746,1.99,1.791C75,19.642,74.2,20.533,73.155,20.588z"/>
</g>
</svg>