<svg xmlns="http://www.w3.org/2000/svg" xmlns:xlink="http://www.w3.org/1999/xlink" version="1.1" id="Layer_1" x="0px" y="0px" width="100px" height="100px" viewBox="0 0 100 100" enable-background="new 0 0 100 100" xml:space="preserve">
<path fill="#000000" d="M68.67,70.023H53.181v-15.58l30.968-30.97L70.51,10.489H29.401L16.356,23.525l30.923,30.926v15.566H31.697  c-5.144,0.006-9.302,4.168-9.302,9.305c0,5.143,4.163,9.309,9.302,9.309c5.134,0,9.297-4.166,9.297-9.309  c0-1.621-1.326-2.949-2.948-2.949c-1.623,0-2.952,1.328-2.952,2.949c-0.003,1.881-1.519,3.396-3.397,3.404  c-1.883-0.008-3.399-1.523-3.402-3.404c0.003-1.871,1.527-3.395,3.402-3.402h15.582v13.516c0,1.633,1.316,2.955,2.946,2.955  c1.634,0,2.956-1.322,2.956-2.955V75.924l15.489-0.008c1.879,0.01,3.396,1.531,3.401,3.406c-0.006,1.881-1.522,3.396-3.401,3.404  c-1.878-0.008-3.394-1.523-3.398-3.404c0-1.627-1.316-2.943-2.943-2.943c-1.634,0-2.951,1.316-2.951,2.943h-0.011  c0,5.141,4.16,9.307,9.304,9.307c5.14,0,9.304-4.166,9.304-9.307C77.974,74.189,73.812,70.023,68.67,70.023z M49.438,48.25  l-7.327-23.24h15.964l-7.119,23.296l-0.731,0.731L49.438,48.25z M53.181,46.084l6.234-20.403l4.224,9.945L53.181,46.084z   M64.764,34.5l-4.029-9.489h13.521L64.764,34.5z M68.155,16.4l5.936,5.66H61.812l5.666-5.66H68.155z M65.385,16.4l-5.66,5.66h-0.847  l-5.665-5.66H65.385z M51.127,16.4l5.661,5.66h-13.4l5.656-5.66H51.127z M46.952,16.4l-5.661,5.66h-0.839l-5.66-5.66H46.952z   M31.837,16.4h0.855l5.659,5.66H26.173L31.837,16.4z M26.191,25.011h13.282l-3.829,9.451L26.191,25.011z M36.778,35.593l4.005-9.884  l6.393,20.279L36.778,35.593z"/>
</svg>