<?xml version="1.0" encoding="utf-8"?>
<!-- Generator: Adobe Illustrator 17.1.0, SVG Export Plug-In . SVG Version: 6.00 Build 0)  -->
<!DOCTYPE svg PUBLIC "-//W3C//DTD SVG 1.1//EN" "http://www.w3.org/Graphics/SVG/1.1/DTD/svg11.dtd">
<svg version="1.1" id="Layer_1" xmlns="http://www.w3.org/2000/svg" xmlns:xlink="http://www.w3.org/1999/xlink" x="0px" y="0px"
	 viewBox="0 0 400 400" enable-background="new 0 0 400 400" xml:space="preserve">
<circle fill="#FFFFFF" stroke="#000000" stroke-miterlimit="10" cx="200" cy="200" r="200"/>
<g>
	<g>
		<path fill="#8E8E8E" d="M200,0C89.5,0,0,89.5,0,200s89.5,200,200,200s200-89.5,200-200S310.5,0,200,0z M255.3,271.2
			c0,0-56.5-0.8-80.2-0.8c-18,0-34.2,0.8-34.2,0.8V264l6.5-1.2c10.8-2,16.2-10,16.2-24.5V121c0-11.5-4.2-14.8-14.5-16.2l-8.2-1.2
			v-7.2c0,0,23.5,0.8,35.2,0.8c41.2,0,78.5-0.8,78.5-0.8v41h-6c-3.2-18.2-16.8-32.5-45.5-32.5c-6.8,0-12.8,1-15.5,1.8
			c0,13.8,0,70.2,0,70.2h17.8c15.5,0,20.5-7.8,22.5-19l1.8-10h6.2c0,0-0.8,18.5-0.8,31.8c0,14,0.8,27.8,0.8,27.8h-6.2l-1-5.8
			c-1.5-9.2-7.2-15-21-15h-20v60c0,10.8,8,16.2,19.2,16.2c31.5,0,43.2-20,50.2-38.5l6,0.8L255.3,271.2z"/>
	</g>
</g>
</svg>
