<?xml version="1.0" encoding="utf-8"?>
<!-- Generator: Adobe Illustrator 17.1.0, SVG Export Plug-In . SVG Version: 6.00 Build 0)  -->
<!DOCTYPE svg PUBLIC "-//W3C//DTD SVG 1.1//EN" "http://www.w3.org/Graphics/SVG/1.1/DTD/svg11.dtd">
<svg version="1.1" id="Layer_1" xmlns="http://www.w3.org/2000/svg" xmlns:xlink="http://www.w3.org/1999/xlink" x="0px" y="0px"
	 viewBox="0 0 400 400" enable-background="new 0 0 400 400" xml:space="preserve">
<path fill="#8E8E8E" d="M199.2,400.8c111.2,0,200.8-89.6,200.8-200S310.4,0,199.2,0s-200,89.6-200,200.8S88.8,400.8,199.2,400.8"/>
<path fill="#FBFBFB" d="M151.2,163.2h21.6v-20c0-9.6,0-22.4,7.2-30.4c7.2-9.6,16.8-15.2,32-15.2c25.6,0,37.6,3.2,37.6,3.2l-4.8,30.4
	c0,0-8-2.4-16.8-2.4c-8,0-15.2,2.4-15.2,10.4v23.2h32.8l-3.2,29.6H212v104h-39.2V192h-21.6C151.2,192.8,151.2,163.2,151.2,163.2z"/>
</svg>
