<svg xmlns="http://www.w3.org/2000/svg" xmlns:xlink="http://www.w3.org/1999/xlink" version="1.1" x="0px" y="0px" width="100px" height="100px" viewBox="0 0 100 100" enable-background="new 0 0 100 100" xml:space="preserve">
<g id="Captions">
	<rect x="-468" y="-138" width="185" height="99"/>
	<rect x="-276" y="-174" width="100" height="30"/>
	<text transform="matrix(1 0 0 1 -210 -157.5)" fill="#000000" font-family="'Helvetica'" font-size="2.4">http://thenounproject.com</text>
	<text transform="matrix(1 0 0 1 -268.834 -162.5)"><tspan x="0" y="0" fill="#000000" font-family="'Helvetica-Bold'" font-size="6.1578">The Noun Project</tspan><tspan x="1.12" y="4.8" fill="#000000" font-family="'Helvetica-Bold'" font-size="4">Icon Template</tspan></text>
	<text transform="matrix(1 0 0 1 -454.5 -127.5)" fill="#000000" font-family="'Helvetica-Bold'" font-size="6.1578">Reminders</text>
	<line fill="#000000" stroke="#FFFFFF" stroke-miterlimit="10" x1="-268" y1="-152.5" x2="-258" y2="-152.5"/>
	<line fill="#000000" stroke="#FFFFFF" stroke-miterlimit="10" x1="-455" y1="-121.5" x2="-438" y2="-121.5"/>
	<g>
		<g>
			<g>
				<rect x="-446.802" y="-106.682" fill="#000000" width="8.721" height="8.642"/>
				<path fill="#000000" d="M-440.455-95.688h4.747v-4.703h-4.747V-95.688z M-435.266-95.251h-5.63v-5.579h5.63V-95.251      L-435.266-95.251z M-442.221-93.938h8.279v-8.203h-8.279V-93.938L-442.221-93.938z M-433.5-93.5h-9.163v-9.079h9.163V-93.5      L-433.5-93.5z"/>
				<polygon fill="#000000" points="-442.149,-93.867 -442.292,-94.009 -434.013,-102.213 -433.871,-102.071     "/>
			</g>
		</g>
	</g>
	<rect x="-455" y="-80" fill="none" width="35" height="32.5"/>
	<text transform="matrix(1 0 0 1 -455 -77.8428)"><tspan x="0" y="0" fill="#000000" font-family="'Helvetica-Bold'" font-size="3">Strokes</tspan><tspan x="0" y="5" fill="#000000" font-family="'Helvetica'" font-size="2.4">Try to keep strokes at 4px</tspan><tspan x="0" y="10" fill="#000000" font-family="'Helvetica'" font-size="2.4">Minimum stroke weight is 2px</tspan><tspan x="0" y="14.5" fill="#000000" font-family="'Helvetica'" font-size="2.4">For thicker strokes use even </tspan><tspan x="0" y="17.5" fill="#000000" font-family="'Helvetica'" font-size="2.4">numbers: 6px, 8px etc.</tspan><tspan x="0" y="22" fill="#000000" font-family="'Helvetica-Bold'" font-size="2.4">Remember to expand strokes </tspan><tspan x="0" y="25" fill="#000000" font-family="'Helvetica-Bold'" font-size="2.4">before saving as an SVG </tspan></text>
	<rect x="-412.5" y="-80" fill="none" width="35" height="32.5"/>
	<text transform="matrix(1 0 0 1 -412.5 -77.8428)"><tspan x="0" y="0" fill="#000000" font-family="'Helvetica-Bold'" font-size="3">Size</tspan><tspan x="0" y="5" fill="#000000" font-family="'Helvetica'" font-size="2.4">Cannot be wider or taller than </tspan><tspan x="0" y="8.5" fill="#000000" font-family="'Helvetica'" font-size="2.4">100px (artboard size)</tspan><tspan x="0" y="13.5" fill="#000000" font-family="'Helvetica'" font-size="2.4">Scale your icon to fill as much of </tspan><tspan x="0" y="16.5" fill="#000000" font-family="'Helvetica'" font-size="2.4">the artboard as possible</tspan></text>
	<rect x="-370" y="-80" fill="none" width="35" height="32.5"/>
	<text transform="matrix(1 0 0 1 -370 -77.8428)"><tspan x="0" y="0" fill="#000000" font-family="'Helvetica-Bold'" font-size="3">Ungroup</tspan><tspan x="0" y="5" fill="#000000" font-family="'Helvetica'" font-size="2.4">If your design has more than one </tspan><tspan x="0" y="8" fill="#000000" font-family="'Helvetica'" font-size="2.4">shape, make sure to ungroup</tspan></text>
	<rect x="-326" y="-80" fill="none" width="35" height="32.5"/>
	<text transform="matrix(1 0 0 1 -326 -77.8428)"><tspan x="0" y="0" fill="#000000" font-family="'Helvetica-Bold'" font-size="3">Save as</tspan><tspan x="0" y="5" fill="#000000" font-family="'Helvetica'" font-size="2.4">Save as .SVG and make sure </tspan><tspan x="0" y="8" fill="#000000" font-family="'Helvetica'" font-size="2.4">&#8220;Use Artboards&#8221; is checked</tspan></text>
	<text transform="matrix(1.0074 0 0 1 -401.542 -107.4067)" fill="#000000" font-family="'Helvetica'" font-size="2.5731">100px</text>
	<text transform="matrix(1.0074 0 0 1 -317 -99)" fill="#000000" font-family="'Helvetica-Bold'" font-size="5.1462">.SVG</text>
	<rect x="-402.514" y="-103.185" fill="#000000" width="10.261" height="10.185"/>
	<rect x="-402.477" y="-106.234" fill="#000000" width="0.522" height="2.337"/>
	<rect x="-392.812" y="-106.234" fill="#000000" width="0.523" height="2.337"/>
	<rect x="-403" y="-105.663" fill="#000000" width="11.233" height="0.572"/>
	<g>
		<rect x="-359.805" y="-104.156" fill="#000000" width="10.305" height="10.156"/>
		<rect x="-352.809" y="-109.293" fill="#000000" width="3.308" height="3.261"/>
	</g>
	<rect x="-454.5" y="-115.5" fill="#000000" stroke="#FFFFFF" stroke-miterlimit="10" width="30" height="30"/>
	<rect x="-412.5" y="-115.5" fill="#000000" stroke="#FFFFFF" stroke-miterlimit="10" width="30" height="30"/>
	<rect x="-369.5" y="-115.5" fill="#000000" stroke="#FFFFFF" stroke-miterlimit="10" width="30" height="30"/>
	<rect x="-325.5" y="-115.5" fill="#000000" stroke="#FFFFFF" stroke-miterlimit="10" width="30" height="30"/>
</g>
<g id="Your_Icon">
	<path d="M-203.933-118.965H-257v37.372v8.605v6.578c0,4.756,3.856,8.611,8.612,8.611h42.728c4.756,0,8.611-3.855,8.611-8.611   v-6.578v-8.605v-30.487L-203.933-118.965z"/>
	<path fill="#000000" d="M-208.087-85.912c0-0.475-0.386-0.861-0.86-0.861H-245.1c-0.476,0-0.861,0.387-0.861,0.861v28.051   c0,0.477,0.386,0.861,0.861,0.861h36.153c0.475,0,0.86-0.385,0.86-0.861V-85.912z"/>
	<path fill="#000000" d="M-209.187-116.76h-27.119c-0.466,0-0.845,0.378-0.845,0.845v19.171c0,0.468,0.379,0.846,0.845,0.846h27.119   c0.467,0,0.845-0.378,0.845-0.846v-19.171C-208.342-116.382-208.72-116.76-209.187-116.76z M-212.846-98.127h-7.898v-16h7.898   V-98.127z"/>
	<rect x="-241.833" y="-78.635" width="29.333" height="2.334"/>
	<rect x="-241.833" y="-71.969" width="29.333" height="2.334"/>
	<rect x="-241.833" y="-65.301" width="29.333" height="2.332"/>
	<ellipse cx="-88.548" cy="-90.445" rx="33.331" ry="26.555"/>
	<path d="M-70.605-71.674c0.719,1.11,1.659,9.667-0.315,13.897c0,0-4.71-9.407-8.144-8.104"/>
	<g>
		<path fill="#000000" d="M-93.015-98.741c-0.471,0.262-0.862,0.47-1.177,0.628c-2.246,1.253-3.737,2.82-4.469,4.702h4.312v9.17    h-8.699v-6.271c0-4.493,2.481-8.281,7.443-11.364L-93.015-98.741z"/>
		<path fill="#000000" d="M-74.049-86.789c0,4.494-2.484,8.282-7.446,11.364l-2.586-3.135c0.471-0.261,0.862-0.469,1.175-0.625    c2.248-1.256,3.736-2.822,4.468-4.704h-4.31v-9.17h8.699V-86.789z"/>
	</g>
	<g>
		<g>
			<path d="M39.139-72.383c-9.944-5.692-19.547-7.785-20.956-5.322c-1.41,2.463,5.511,9.071,15.453,14.763     c9.946,5.692,19.151,8.311,20.562,5.848C55.604-59.555,49.083-66.693,39.139-72.383z M44.496-62.646     c-0.636,1.108-4.705-0.028-9.09-2.537c-4.385-2.511-7.426-5.444-6.791-6.552c0.635-1.108,4.702,0.028,9.09,2.537     C42.089-66.688,45.129-63.754,44.496-62.646z"/>
		</g>
		<g>
			<path d="M64.493-108.627c-4.029-2.306-8.418-2.205-8.423-2.194L20.71-79.823c3.329-0.739,11.289,1.499,19.492,6.195     c8.375,4.792,14.302,10.6,15.129,13.787c3.088-8.411,15.1-41.136,15.128-41.186C71.074-102.103,68.521-106.323,64.493-108.627z      M60.449-101.736L45.187-79.665c-0.293,0.426-0.877,0.532-1.301,0.238c-0.426-0.294-0.532-0.88-0.238-1.303l15.263-22.072     c0.293-0.426,0.876-0.533,1.301-0.24C60.637-102.746,60.742-102.162,60.449-101.736z"/>
		</g>
		<g>
			<path d="M71.35-116.609c-3.987-2.65-8.912-3.102-9.584-2.094l-4.037,5.695c0.67-1.008,5.278-0.511,9.267,2.14     c3.985,2.648,5.844,6.449,5.173,7.457l4.039-5.696C76.877-110.116,75.336-113.959,71.35-116.609z"/>
		</g>
		<g>
			<path d="M71.786-89.036c-0.307,0-0.633-0.041-0.973-0.136c-1.422-0.398-2.098-0.711-2.169-0.746     c-0.621-0.295-0.885-1.039-0.59-1.659c0.297-0.621,1.037-0.884,1.659-0.589c0,0,0.562,0.258,1.77,0.596     c0.41,0.113,0.701-0.019,0.847-0.114c1.409-3.131,3.52-7.876,4.088-9.284c-0.352-0.309-1.136-0.778-1.863-1.1     c-0.628-0.278-0.912-1.013-0.634-1.641c0.276-0.628,1.014-0.912,1.64-0.636c1.824,0.804,3.889,2.112,3.362,3.778     c-0.305,0.97-3.745,8.626-4.433,10.151c-0.053,0.119-0.125,0.228-0.212,0.324C73.876-89.647,72.973-89.036,71.786-89.036z"/>
		</g>
	</g>
	<g>
		<g id="XMLID_1_">
			<g>
				<path d="M216.91-99.939c0,1.111,0,2.222,0,3.333c-0.046,0.162-0.081,0.324-0.116,0.486c-0.336,1.516-0.532,3.067-1.007,4.525      c-1.262,3.922-3.645,7.162-6.537,10.008c-3.321,3.275-6.804,6.399-10.241,9.57c-3.529,3.251-6.873,6.665-9.743,10.542      c-0.602,0.821-1.191,1.654-1.782,2.476c-0.058-0.023-0.08-0.023-0.093-0.035c-0.427-0.567-0.844-1.133-1.261-1.7      c-3.9-5.254-8.679-9.65-13.562-13.943c-3.183-2.8-6.364-5.601-9.061-8.888c-2.511-3.043-4.34-6.422-5.092-10.333      c-0.162-0.868-0.277-1.735-0.416-2.592c0-1.145,0-2.302,0-3.448c0.035-0.092,0.093-0.174,0.104-0.254      c0.301-2.917,1.332-5.555,3.159-7.823c3.935-4.848,9.014-6.873,15.17-5.727c4.837,0.902,8.343,3.726,10.692,8.019      c0.104,0.173,0.208,0.347,0.336,0.579c0.15-0.267,0.243-0.439,0.347-0.625c3.043-5.867,9.57-9.153,16.085-8.088      c6.294,1.018,11.375,5.878,12.67,12.127C216.689-101.131,216.794-100.542,216.91-99.939z"/>
			</g>
		</g>
	</g>
	<g>
		<circle cx="202.356" cy="-78.553" r="11.445"/>
		<path fill="#000000" d="M202.355-65.95c-6.948,0-12.602-5.653-12.602-12.603c0-6.948,5.653-12.602,12.602-12.602    c6.949,0,12.604,5.653,12.604,12.602C214.959-71.604,209.305-65.95,202.355-65.95z M202.355-88.84    c-5.673,0-10.287,4.614-10.287,10.287s4.614,10.288,10.287,10.288c5.674,0,10.289-4.615,10.289-10.288    S208.029-88.84,202.355-88.84z"/>
	</g>
	
		<line fill="#000000" stroke="#FFFFFF" stroke-width="2" stroke-miterlimit="10" x1="195.847" y1="-78.553" x2="208.864" y2="-78.553"/>
	
		<line fill="#000000" stroke="#FFFFFF" stroke-width="2" stroke-miterlimit="10" x1="202.355" y1="-72.044" x2="202.355" y2="-85.062"/>
	<path d="M346.164-60.392l-26.419-32.425c-0.35-0.428,2.383-10.498,2.383-10.498l-8.672-10.656l-8.312,1.337l7.422,9.111   c0.415,0.509,0.338,1.257-0.17,1.672l-5.474,4.458c-0.509,0.414-1.257,0.338-1.672-0.171l-7.344-9.013l-0.823,2.156L295-98.95   l8.672,10.655c0,0,10.431-0.635,10.779-0.208l26.421,32.424c0.628,0.772,1.766,0.887,2.536,0.261l2.498-2.035   C346.678-58.482,346.795-59.621,346.164-60.392z M343.147-58.756c-0.511,0.417-1.263,0.341-1.679-0.172   c-0.415-0.509-0.338-1.26,0.172-1.677c0.511-0.415,1.262-0.339,1.679,0.171C343.735-59.924,343.658-59.171,343.147-58.756z"/>
	<g>
		<path d="M343.132-111.683c0,0,9.647-0.796,15.09,10.361c5.442,11.157-0.857,18.055-2.485,20.011c0,0,1.222-4.778-1.033-8.036    c-2.255-3.258-8.528-9.312-11.215-5.753c-2.688,3.558-12.079,14.5-12.079,14.5l-4.237-3.529l10.587-12.708    c0,0,2.092-3.226-1.97-6.608C331.729-106.828,340.666-111.851,343.132-111.683z"/>
		<path d="M337.227-104.597c-0.636,0.766-1.774,0.87-2.54,0.232l-3.946-3.288c-0.766-0.637-0.868-1.775-0.232-2.541l4.751-5.701    c0.636-0.766,1.775-0.869,2.541-0.231l3.945,3.287c0.765,0.638,0.868,1.776,0.231,2.541L337.227-104.597z"/>
		<path d="M338.161-90.739l-2.476-2.063c-0.764-0.637-1.9-0.534-2.538,0.234l-26.771,32.138c-0.638,0.763-0.534,1.9,0.231,2.537    l2.475,2.061c0.766,0.639,1.903,0.534,2.539-0.229L338.393-88.2C339.029-88.965,338.927-90.103,338.161-90.739z M311.119-58.93    c-0.422,0.507-1.175,0.576-1.681,0.154c-0.504-0.423-0.573-1.174-0.152-1.681s1.174-0.574,1.68-0.154    C311.473-60.188,311.541-59.435,311.119-58.93z"/>
	</g>
	<rect x="-259.507" y="32.307" fill="none" stroke="#000000" stroke-miterlimit="10" width="59.436" height="48.693"/>
	<g>
		<path d="M-199.577,28.781c0,0.98-0.754,1.774-1.682,1.774h-57.06c-0.929,0-1.682-0.794-1.682-1.774v-6.374    c0-0.98,0.752-1.776,1.682-1.776h57.06c0.928,0,1.682,0.796,1.682,1.776V28.781z"/>
	</g>
	<circle fill="#000000" cx="-253.871" cy="25.593" r="1.509"/>
	<circle fill="#000000" cx="-237.704" cy="25.593" r="1.459"/>
	<g>
		<circle fill="#000000" cx="-221.535" cy="25.593" r="1.363"/>
	</g>
	<g>
		<circle fill="#000000" cx="-205.367" cy="25.593" r="1.362"/>
	</g>
	<line fill="none" stroke="#000000" stroke-miterlimit="10" x1="-253.871" y1="26.423" x2="-253.871" y2="33.967"/>
	<line fill="none" stroke="#000000" stroke-miterlimit="10" x1="-237.704" y1="26.423" x2="-237.704" y2="33.967"/>
	<line fill="none" stroke="#000000" stroke-miterlimit="10" x1="-221.535" y1="26.423" x2="-221.535" y2="33.967"/>
	<line fill="none" stroke="#000000" stroke-miterlimit="10" x1="-205.366" y1="26.423" x2="-205.366" y2="33.967"/>
	<path d="M-235.943,48.651c0,3.735-3.029,6.764-6.764,6.764c-3.736,0-6.766-3.028-6.766-6.764c0-3.738,3.03-6.767,6.766-6.767   C-238.972,41.885-235.943,44.913-235.943,48.651z"/>
	<path d="M-242.707,57.311c-6.167,0-11.164,6.529-11.164,14.581h22.327C-231.544,63.84-236.543,57.311-242.707,57.311z"/>
	<g>
		<line fill="none" stroke="#000000" stroke-miterlimit="10" x1="-226.967" y1="43.148" x2="-206.34" y2="43.148"/>
		<line fill="none" stroke="#000000" stroke-miterlimit="10" x1="-226.967" y1="52.539" x2="-206.34" y2="52.539"/>
		<line fill="none" stroke="#000000" stroke-miterlimit="10" x1="-226.967" y1="61.933" x2="-206.34" y2="61.933"/>
		<line fill="none" stroke="#000000" stroke-miterlimit="10" x1="-226.967" y1="71.326" x2="-206.34" y2="71.326"/>
	</g>
	<circle cx="-87.5" cy="49.5" r="37.5"/>
	<circle fill="#000000" cx="-75.113" cy="36.885" r="7.954"/>
	<circle fill="#000000" cx="-99.318" cy="36.885" r="7.954"/>
	<circle cx="-97.272" cy="35.519" r="2.158"/>
	<circle cx="-77.5" cy="39.613" r="2.159"/>
	<g>
		<g>
			<path fill="#000000" d="M-117.271,51.842c5.155,7.984,15.051,12.68,24.073,14.529c14.131,2.897,27.416-2.924,36.897-13.342     c2.165-2.378-1.36-5.925-3.535-3.535c-8.422,9.253-19.479,14.249-32.033,12.056c-7.635-1.334-16.732-5.49-21.086-12.231     C-114.696,46.62-119.026,49.124-117.271,51.842L-117.271,51.842z"/>
		</g>
	</g>
	<path stroke="#FFFFFF" stroke-miterlimit="10" d="M-105.614,61.003c-2.852-0.176-11.703,8.352-8.295,18.238   c3.409,9.887,13.978,8.693,16.023,2.557c2.045-6.137,3.238-12.784,9.886-15.17C-88,66.628-91.807,61.854-105.614,61.003z" fill="#000000"/>
	<g>
		<path fill="#000000" d="M-104.979,27.133c0,0,0.266-0.791,1.08-1.689c0.409-0.443,0.936-0.933,1.616-1.316    c0.662-0.405,1.48-0.703,2.345-0.824c0.438-0.037,0.876-0.085,1.312-0.007c0.438,0.021,0.849,0.148,1.235,0.293    c0.398,0.109,0.724,0.345,1.036,0.534c0.323,0.178,0.559,0.434,0.777,0.657c0.214,0.226,0.425,0.41,0.544,0.637    c0.138,0.207,0.24,0.401,0.325,0.555c0.165,0.312,0.238,0.497,0.238,0.497s-0.2-0.072-0.515-0.21    c-0.154-0.07-0.343-0.149-0.539-0.255c-0.19-0.117-0.456-0.16-0.692-0.27c-0.248-0.092-0.503-0.205-0.79-0.254    c-0.28-0.061-0.553-0.172-0.854-0.181c-0.148-0.014-0.295-0.039-0.441-0.063c-0.149-0.016-0.304,0.005-0.454-0.005    c-0.302-0.023-0.612,0.022-0.923,0.054c-0.311,0.025-0.623,0.114-0.936,0.17c-0.307,0.1-0.622,0.156-0.92,0.274    c-0.61,0.187-1.174,0.444-1.691,0.638C-104.226,26.809-104.979,27.133-104.979,27.133z"/>
	</g>
	<g>
		<path fill="#000000" d="M-78.547,28.498c0,0,0.283-0.924,1.178-2.028c0.451-0.543,1.03-1.154,1.792-1.658    c0.739-0.528,1.661-0.948,2.649-1.174c0.503-0.087,1.004-0.186,1.515-0.143c0.507-0.021,0.996,0.08,1.458,0.204    c0.474,0.08,0.876,0.314,1.262,0.495c0.396,0.165,0.701,0.432,0.983,0.661c0.278,0.234,0.551,0.417,0.721,0.662    c0.188,0.222,0.336,0.429,0.458,0.595c0.24,0.335,0.356,0.534,0.356,0.534s-0.233-0.077-0.606-0.225    c-0.185-0.076-0.409-0.162-0.647-0.277c-0.23-0.13-0.545-0.168-0.836-0.283c-0.301-0.098-0.613-0.219-0.962-0.259    c-0.342-0.055-0.682-0.171-1.05-0.159c-0.182-0.006-0.362-0.023-0.545-0.041c-0.184-0.007-0.371,0.03-0.557,0.033    c-0.372-0.002-0.747,0.085-1.123,0.155c-0.376,0.065-0.746,0.206-1.118,0.312c-0.359,0.154-0.733,0.264-1.076,0.442    c-0.354,0.15-0.688,0.325-1.01,0.494c-0.325,0.162-0.623,0.344-0.914,0.494C-77.776,28.032-78.547,28.498-78.547,28.498z"/>
	</g>
	<g>
		<path fill="#000000" d="M-101.072,66.849c0,0-0.084,0.249-0.231,0.65c-0.153,0.396-0.363,0.948-0.642,1.549    c-0.131,0.309-0.275,0.633-0.438,0.96c-0.165,0.325-0.304,0.687-0.484,1.026c-0.179,0.342-0.328,0.708-0.527,1.05    c-0.149,0.364-0.366,0.702-0.52,1.063c-0.171,0.353-0.362,0.699-0.515,1.048c-0.077,0.176-0.166,0.346-0.258,0.515    c-0.078,0.172-0.154,0.342-0.229,0.51c-0.159,0.336-0.339,0.658-0.462,0.981c-0.128,0.321-0.305,0.627-0.41,0.923    c-0.106,0.295-0.25,0.573-0.367,0.828c-0.081,0.253-0.188,0.483-0.268,0.678c-0.169,0.388-0.296,0.63-0.296,0.63l-0.199,0.025    c0,0-0.021-0.225-0.057-0.617c-0.018-0.197-0.039-0.437-0.064-0.711c0.002-0.275,0.013-0.586,0.029-0.925    c-0.001-0.342,0.063-0.704,0.125-1.088c0.046-0.388,0.136-0.788,0.254-1.196c0.094-0.415,0.237-0.829,0.396-1.246    c0.138-0.426,0.344-0.829,0.528-1.242c0.406-0.81,0.888-1.576,1.387-2.26c0.495-0.686,1.007-1.286,1.466-1.781    c0.924-0.985,1.654-1.525,1.654-1.524L-101.072,66.849z"/>
	</g>
	<path fill="#000000" stroke="#000000" stroke-miterlimit="10" d="M77.666,49.459c0,0,3.81-0.876,0.729-3.675   c-3.078-2.802-6.721-9.244-3.639-13.445c3.08-4.198,8.602-9.427,1.919-13.677c-6.685-4.247-10.884-5.088-13.684-4.247   c-2.801,0.841-7.283-4.854-12.606-4.388c-5.321,0.467-7.275,2.955-7.275,2.955l-5.604,2.97c0,0,2.828,1.922-1.745,8.919   c-2.179,3.331-3.819,7.889-1.263,17.018c4.033,14.412,16.656,9.495,16.295,21.097c-0.064,2.041-2.087,6.604-2.087,6.604h17.645   c0,0-5.599-2.521-4.197-7.28c0,0,6.332,0.193,9.983-1.866C76.738,57.849,77.699,53.745,77.666,49.459z"/>
	<path d="M34.498,41.889c1.202,4.296,3.985,8.117,7.825,10.438c3.204,1.937,7.708,4.965,8.327,9.026   c1.8-1.788,2.543-4.175,3.294-6.526c0.37-1.155,0.725-2.324,1.26-3.417c0.564-1.148,1.657-2.021,2.186-3.13   c1.528-3.202-6.282-5.578-4.915-9.983c0.493-1.592,2.131-2.813,3.778-2.446c1.649,0.37,3.255,2.337,4.192,3.599   c-1.529-3.45,1.983-5.896,4.759-6.551c2.523-0.594,5.149-0.835,7.671-1.487c5.37-1.391,9.56-9.085,3.8-12.749   c-6.685-4.247-10.884-5.088-13.684-4.247c-2.801,0.841-7.283-4.854-12.606-4.388c-5.321,0.467-7.275,2.955-7.275,2.955l-5.604,2.97   c0,0,2.828,1.922-1.745,8.919C33.582,28.202,31.941,32.76,34.498,41.889z"/>
	<path d="M39.997,17.288c0,0-8.379-11.34-15.633-3.562c-7.258,7.774-5.732,21.966-3.581,35.613   c2.156,13.65-5.033,13.74-8.436,12.307c0,0,8.402,6.202,13.235-0.593c4.839-6.792,7.649-19.868,3.8-27.981   c-3.854-8.114,3.302-12.875,7.076-11.136C40.236,23.675,39.997,17.288,39.997,17.288z"/>
	<path d="M46.944,78.521c0,1.238-1.001,2.241-2.24,2.241c-1.24,0-2.239-1.003-2.239-2.241c0-1.237,0.999-2.24,2.239-2.24   C45.943,76.28,46.944,77.283,46.944,78.521z"/>
	<circle cx="49.363" cy="83.181" r="2.419"/>
	<path d="M46.944,78.521c0,1.238-1.001,2.241-2.24,2.241c-1.24,0-2.239-1.003-2.239-2.241c0-1.237,0.999-2.24,2.239-2.24   C45.943,76.28,46.944,77.283,46.944,78.521z"/>
	<circle cx="49.363" cy="83.181" r="2.419"/>
	<path d="M68.391,78.521c0,1.238,0.999,2.241,2.239,2.241c1.237,0,2.238-1.003,2.238-2.241c0-1.237-1.001-2.24-2.238-2.24   C69.39,76.28,68.391,77.283,68.391,78.521z"/>
	<path d="M63.549,83.181c0,1.335,1.084,2.419,2.424,2.419c1.334,0,2.418-1.084,2.418-2.419s-1.084-2.419-2.418-2.419   C64.633,80.762,63.549,81.846,63.549,83.181z"/>
	<path d="M61.919,85.6c0,2.429-1.967,4.4-4.402,4.4c-2.434,0-4.4-1.972-4.4-4.4c0-2.432,1.967-4.4,4.4-4.4   C59.952,81.199,61.919,83.168,61.919,85.6z"/>
</g>
</svg>