<svg xmlns="http://www.w3.org/2000/svg" xmlns:xlink="http://www.w3.org/1999/xlink" version="1.1" x="0px" y="0px" viewBox="0 0 100 100" enable-background="new 0 0 100 100" xml:space="preserve" height="100px" width="100px">
<g id="Captions">
</g>
<g id="Your_Icon">
	<g id="Your_Icon_1_">
		<circle fill="#000000" cx="32.626" cy="6.986" r="0.798"/>
		<circle fill="#000000" cx="36.462" cy="3.965" r="0.798"/>
		<circle fill="#000000" cx="38.454" cy="2.611" r="0.798"/>
		<circle fill="#000000" cx="40.759" cy="1.627" r="0.798"/>
		<circle fill="#000000" cx="43.224" cy="1.053" r="0.798"/>
		<circle fill="#000000" cx="45.864" cy="0.83" r="0.798"/>
		<circle fill="#000000" cx="48.228" cy="0.83" r="0.798"/>
		<circle fill="#000000" cx="50.718" cy="0.83" r="0.798"/>
		<circle fill="#000000" cx="53.184" cy="0.83" r="0.798"/>
		<circle fill="#000000" cx="55.5" cy="0.83" r="0.798"/>
		<circle fill="#000000" cx="57.919" cy="1.328" r="0.798"/>
		<circle fill="#000000" cx="60.199" cy="1.813" r="0.798"/>
		<circle fill="#000000" cx="62.402" cy="2.924" r="0.798"/>
		<circle fill="#000000" cx="64.197" cy="4.521" r="0.798"/>
		<circle fill="#000000" cx="65.793" cy="6.188" r="0.798"/>
		<circle fill="#000000" cx="34.388" cy="5.318" r="0.798"/>
		<circle fill="#000000" cx="30.994" cy="9.416" r="1.078"/>
		<circle fill="#000000" cx="29.127" cy="12.417" r="1.693"/>
		<path fill="#000000" d="M29.127,14.612c-1.21,0-2.195-0.984-2.195-2.195s0.984-2.195,2.195-2.195s2.195,0.984,2.195,2.195    S30.337,14.612,29.127,14.612z M29.127,11.226c-0.656,0-1.191,0.535-1.191,1.191s0.534,1.191,1.191,1.191s1.191-0.534,1.191-1.191    C30.318,11.76,29.783,11.226,29.127,11.226z"/>
		<circle fill="#000000" cx="27.435" cy="15.802" r="1.693"/>
		<path fill="#000000" d="M27.434,17.996c-1.21,0-2.195-0.984-2.195-2.195s0.984-2.195,2.195-2.195c1.21,0,2.195,0.984,2.195,2.195    C29.629,17.012,28.645,17.996,27.434,17.996z M27.434,14.612c-0.656,0-1.191,0.534-1.191,1.191c0,0.657,0.534,1.191,1.191,1.191    c0.657,0,1.191-0.534,1.191-1.191C28.625,15.145,28.092,14.612,27.434,14.612z"/>
		<circle fill="#000000" cx="25.742" cy="19.186" r="1.693"/>
		<path fill="#000000" d="M25.742,21.381c-1.21,0-2.195-0.984-2.195-2.195s0.984-2.195,2.195-2.195c1.21,0,2.195,0.984,2.195,2.195    C27.936,20.397,26.952,21.381,25.742,21.381z M25.742,17.996c-0.656,0-1.191,0.534-1.191,1.191s0.534,1.191,1.191,1.191    c0.657,0,1.191-0.535,1.191-1.191C26.934,18.531,26.399,17.996,25.742,17.996z"/>
		<circle fill="#000000" cx="24.661" cy="22.885" r="2.006"/>
		<path fill="#000000" d="M24.661,25.393c-1.383,0-2.508-1.125-2.508-2.508c0-1.383,1.125-2.508,2.508-2.508    c1.383,0,2.508,1.125,2.508,2.508C27.168,24.268,26.043,25.393,24.661,25.393z M24.661,21.381c-0.83,0-1.504,0.674-1.504,1.504    c0,0.83,0.674,1.504,1.504,1.504c0.829,0,1.504-0.674,1.504-1.504C26.164,22.056,25.49,21.381,24.661,21.381z"/>
		<circle fill="#000000" cx="23.639" cy="27.309" r="2.417"/>
		<path fill="#000000" d="M23.639,30.227c-1.61,0-2.919-1.31-2.919-2.919c0-1.61,1.31-2.919,2.919-2.919s2.919,1.31,2.919,2.919    C26.558,28.917,25.249,30.227,23.639,30.227z M23.639,25.393c-1.056,0-1.916,0.859-1.916,1.916c0,1.057,0.859,1.916,1.916,1.916    s1.916-0.859,1.916-1.916C25.555,26.252,24.695,25.393,23.639,25.393z"/>
		<circle fill="#000000" cx="22.243" cy="32.142" r="2.417"/>
		<path fill="#000000" d="M22.243,35.062c-1.61,0-2.919-1.31-2.919-2.919c0-1.61,1.31-2.919,2.919-2.919    c1.61,0,2.919,1.31,2.919,2.919C25.162,33.752,23.853,35.062,22.243,35.062z M22.243,30.227c-1.056,0-1.916,0.859-1.916,1.916    c0,1.057,0.859,1.916,1.916,1.916c1.057,0,1.916-0.859,1.916-1.916C24.159,31.086,23.299,30.227,22.243,30.227z"/>
		<circle fill="#000000" cx="21.222" cy="36.976" r="2.417"/>
		<path fill="#000000" d="M21.222,39.895c-1.61,0-2.919-1.31-2.919-2.918c0-1.61,1.31-2.919,2.919-2.919s2.919,1.31,2.919,2.919    C24.141,38.586,22.831,39.895,21.222,39.895z M21.222,35.062c-1.056,0-1.916,0.859-1.916,1.916c0,1.057,0.859,1.915,1.916,1.915    s1.916-0.859,1.916-1.915C23.137,35.922,22.277,35.062,21.222,35.062z"/>
		<circle fill="#000000" cx="20.81" cy="42.13" r="2.737"/>
		<path fill="#000000" d="M20.81,45.368c-1.785,0-3.238-1.453-3.238-3.238c0-1.785,1.453-3.238,3.238-3.238    c1.785,0,3.238,1.453,3.238,3.238C24.049,43.915,22.597,45.368,20.81,45.368z M20.81,39.895c-1.232,0-2.235,1.002-2.235,2.235    c0,1.232,1.002,2.235,2.235,2.235s2.235-1.002,2.235-2.235C23.045,40.898,22.043,39.895,20.81,39.895z"/>
		<circle fill="#000000" cx="20.666" cy="47.603" r="2.737"/>
		<path fill="#000000" d="M20.666,50.841c-1.785,0-3.238-1.453-3.238-3.238c0-1.785,1.453-3.238,3.238-3.238    c1.785,0,3.238,1.453,3.238,3.238C23.904,49.388,22.451,50.841,20.666,50.841z M20.666,45.368c-1.232,0-2.235,1.002-2.235,2.235    c0,1.232,1.002,2.235,2.235,2.235s2.235-1.002,2.235-2.235C22.901,46.371,21.898,45.368,20.666,45.368z"/>
		<circle fill="#000000" cx="20.81" cy="53.076" r="2.737"/>
		<path fill="#000000" d="M20.81,56.314c-1.785,0-3.238-1.452-3.238-3.238c0-1.786,1.453-3.239,3.238-3.239    c1.785,0,3.238,1.453,3.238,3.239C24.049,54.862,22.597,56.314,20.81,56.314z M20.81,50.841c-1.232,0-2.235,1.002-2.235,2.236    c0,1.232,1.002,2.235,2.235,2.235s2.235-1.002,2.235-2.235C23.045,51.844,22.043,50.841,20.81,50.841z"/>
		<circle fill="#000000" cx="21.687" cy="58.549" r="2.737"/>
		<path fill="#000000" d="M21.687,61.787c-1.785,0-3.238-1.452-3.238-3.238s1.453-3.239,3.238-3.239    c1.785,0,3.238,1.453,3.238,3.239S23.473,61.787,21.687,61.787z M21.687,56.314c-1.232,0-2.235,1.002-2.235,2.236    c0,1.232,1.002,2.235,2.235,2.235c1.232,0,2.235-1.002,2.235-2.235C23.922,57.317,22.92,56.314,21.687,56.314z"/>
		<circle fill="#000000" cx="22.655" cy="64.022" r="2.736"/>
		<path fill="#000000" d="M22.655,67.26c-1.785,0-3.238-1.452-3.238-3.238s1.453-3.239,3.238-3.239c1.785,0,3.238,1.453,3.238,3.239    S24.44,67.26,22.655,67.26z M22.655,61.787c-1.232,0-2.235,1.002-2.235,2.236c0,1.232,1.002,2.235,2.235,2.235    s2.235-1.002,2.235-2.235C24.889,62.79,23.887,61.787,22.655,61.787z"/>
		<circle fill="#000000" cx="24.103" cy="69.495" r="2.736"/>
		<path fill="#000000" d="M24.104,72.733c-1.785,0-3.238-1.452-3.238-3.238c0-1.786,1.453-3.239,3.238-3.239    c1.785,0,3.238,1.453,3.238,3.239C27.342,71.281,25.889,72.733,24.104,72.733z M24.104,67.26c-1.232,0-2.235,1.002-2.235,2.236    c0,1.232,1.002,2.235,2.235,2.235s2.235-1.002,2.235-2.235C26.339,68.263,25.336,67.26,24.104,67.26z"/>
		<circle fill="#000000" cx="26.056" cy="74.968" r="2.736"/>
		<path fill="#000000" d="M26.056,78.206c-1.785,0-3.238-1.452-3.238-3.238c0-1.786,1.453-3.239,3.238-3.239    s3.238,1.453,3.238,3.239C29.294,76.754,27.842,78.206,26.056,78.206z M26.056,72.733c-1.232,0-2.235,1.002-2.235,2.236    c0,1.232,1.002,2.235,2.235,2.235s2.235-1.002,2.235-2.235C28.29,73.736,27.288,72.733,26.056,72.733z"/>
		<circle fill="#000000" cx="28.236" cy="80.046" r="2.736"/>
		<path fill="#000000" d="M28.236,83.284c-1.785,0-3.238-1.452-3.238-3.238s1.453-3.239,3.238-3.239s3.238,1.453,3.238,3.239    S30.022,83.284,28.236,83.284z M28.236,77.811c-1.232,0-2.235,1.002-2.235,2.236c0,1.232,1.002,2.235,2.235,2.235    s2.235-1.002,2.235-2.235C30.471,78.813,29.468,77.811,28.236,77.811z"/>
		<circle fill="#000000" cx="66.977" cy="8.098" r="0.798"/>
		<circle fill="#000000" cx="68.609" cy="10.527" r="1.078"/>
		<circle fill="#000000" cx="70.476" cy="13.529" r="1.693"/>
		<path fill="#000000" d="M70.477,15.723c-1.21,0-2.195-0.984-2.195-2.195s0.983-2.195,2.195-2.195s2.195,0.984,2.195,2.195    C72.67,14.739,71.687,15.723,70.477,15.723z M70.477,12.338c-0.656,0-1.191,0.534-1.191,1.191c0,0.657,0.534,1.191,1.191,1.191    s1.191-0.535,1.191-1.191S71.133,12.338,70.477,12.338z"/>
		<circle fill="#000000" cx="72.169" cy="16.914" r="1.693"/>
		<path fill="#000000" d="M72.169,19.108c-1.21,0-2.195-0.984-2.195-2.195s0.983-2.195,2.195-2.195s2.195,0.984,2.195,2.195    S73.379,19.108,72.169,19.108z M72.169,15.723c-0.656,0-1.191,0.534-1.191,1.191s0.534,1.191,1.191,1.191s1.191-0.534,1.191-1.191    S72.825,15.723,72.169,15.723z"/>
		<circle fill="#000000" cx="73.862" cy="20.298" r="1.693"/>
		<path fill="#000000" d="M73.862,22.493c-1.21,0-2.195-0.984-2.195-2.195c0-1.21,0.983-2.195,2.195-2.195    c1.211,0,2.195,0.984,2.195,2.195C76.056,21.509,75.072,22.493,73.862,22.493z M73.862,19.108c-0.656,0-1.191,0.534-1.191,1.191    c0,0.657,0.534,1.191,1.191,1.191c0.657,0,1.191-0.534,1.191-1.191C75.053,19.642,74.518,19.108,73.862,19.108z"/>
		<circle fill="#000000" cx="74.943" cy="23.997" r="2.006"/>
		<path fill="#000000" d="M74.943,26.505c-1.383,0-2.508-1.125-2.508-2.508s1.125-2.508,2.508-2.508s2.508,1.125,2.508,2.508    S76.326,26.505,74.943,26.505z M74.943,22.493c-0.829,0-1.504,0.674-1.504,1.504c0,0.83,0.675,1.504,1.504,1.504    s1.504-0.674,1.504-1.504C76.447,23.167,75.772,22.493,74.943,22.493z"/>
		<circle fill="#000000" cx="75.965" cy="28.419" r="2.417"/>
		<path fill="#000000" d="M75.965,31.339c-1.61,0-2.919-1.31-2.919-2.919c0-1.61,1.31-2.919,2.919-2.919    c1.61,0,2.918,1.31,2.918,2.919C78.883,30.029,77.574,31.339,75.965,31.339z M75.965,26.505c-1.057,0-1.916,0.859-1.916,1.916    s0.859,1.916,1.916,1.916c1.056,0,1.915-0.859,1.915-1.916S77.02,26.505,75.965,26.505z"/>
		<circle fill="#000000" cx="77.361" cy="33.254" r="2.417"/>
		<path fill="#000000" d="M77.361,36.173c-1.61,0-2.919-1.31-2.919-2.919c0-1.61,1.31-2.919,2.919-2.919    c1.61,0,2.918,1.31,2.918,2.919C80.279,34.864,78.969,36.173,77.361,36.173z M77.361,31.339c-1.057,0-1.916,0.859-1.916,1.916    c0,1.057,0.859,1.916,1.916,1.916c1.056,0,1.915-0.859,1.915-1.916C79.275,32.198,78.416,31.339,77.361,31.339z"/>
		<circle fill="#000000" cx="78.382" cy="38.088" r="2.417"/>
		<path fill="#000000" d="M78.381,41.006c-1.61,0-2.918-1.31-2.918-2.919s1.31-2.918,2.918-2.918c1.61,0,2.919,1.31,2.919,2.918    C81.301,39.698,79.992,41.006,78.381,41.006z M78.381,36.173c-1.056,0-1.915,0.859-1.915,1.915s0.859,1.916,1.915,1.916    c1.057,0,1.916-0.859,1.916-1.916C80.297,37.031,79.438,36.173,78.381,36.173z"/>
		<circle fill="#000000" cx="78.793" cy="43.242" r="2.737"/>
		<path fill="#000000" d="M78.793,46.48c-1.785,0-3.238-1.453-3.238-3.238c0-1.785,1.452-3.238,3.238-3.238    c1.786,0,3.239,1.453,3.239,3.238C82.032,45.027,80.578,46.48,78.793,46.48z M78.793,41.006c-1.232,0-2.235,1.002-2.235,2.235    c0,1.232,1.002,2.235,2.235,2.235c1.233,0,2.236-1.002,2.236-2.235C81.028,42.009,80.025,41.006,78.793,41.006z"/>
		<circle fill="#000000" cx="78.937" cy="48.715" r="2.737"/>
		<path fill="#000000" d="M78.937,51.953c-1.785,0-3.238-1.453-3.238-3.239c0-1.786,1.452-3.238,3.238-3.238    s3.239,1.453,3.239,3.238C82.176,50.499,80.722,51.953,78.937,51.953z M78.937,46.48c-1.232,0-2.235,1.002-2.235,2.235    c0,1.232,1.002,2.236,2.235,2.236c1.233,0,2.236-1.003,2.236-2.236C81.173,47.483,80.17,46.48,78.937,46.48z"/>
		<circle fill="#000000" cx="78.793" cy="54.188" r="2.737"/>
		<path fill="#000000" d="M78.793,57.426c-1.785,0-3.238-1.453-3.238-3.239c0-1.786,1.452-3.238,3.238-3.238    c1.786,0,3.239,1.452,3.239,3.238C82.032,55.973,80.578,57.426,78.793,57.426z M78.793,51.953c-1.232,0-2.235,1.002-2.235,2.235    c0,1.233,1.002,2.236,2.235,2.236c1.233,0,2.236-1.002,2.236-2.236C81.027,52.956,80.025,51.953,78.793,51.953z"/>
		<circle fill="#000000" cx="77.916" cy="59.661" r="2.737"/>
		<path fill="#000000" d="M77.917,62.899c-1.785,0-3.239-1.453-3.239-3.239s1.453-3.238,3.239-3.238s3.238,1.452,3.238,3.238    S79.702,62.899,77.917,62.899z M77.917,57.426c-1.233,0-2.236,1.002-2.236,2.235c0,1.233,1.002,2.236,2.236,2.236    c1.232,0,2.235-1.002,2.235-2.236C80.15,58.429,79.148,57.426,77.917,57.426z"/>
		<circle fill="#000000" cx="76.949" cy="65.134" r="2.736"/>
		<path fill="#000000" d="M76.949,68.372c-1.785,0-3.238-1.453-3.238-3.239c0-1.786,1.452-3.238,3.238-3.238    c1.786,0,3.239,1.452,3.239,3.238C80.188,66.919,78.734,68.372,76.949,68.372z M76.949,62.899c-1.232,0-2.235,1.002-2.235,2.235    c0,1.233,1.002,2.236,2.235,2.236c1.233,0,2.236-1.002,2.236-2.236C79.184,63.902,78.181,62.899,76.949,62.899z"/>
		<circle fill="#000000" cx="75.5" cy="70.607" r="2.736"/>
		<path fill="#000000" d="M75.5,73.846c-1.785,0-3.239-1.453-3.239-3.239s1.453-3.238,3.239-3.238s3.238,1.452,3.238,3.238    S77.286,73.846,75.5,73.846z M75.5,68.372c-1.233,0-2.236,1.002-2.236,2.235c0,1.233,1.002,2.236,2.236,2.236    c1.232,0,2.235-1.002,2.235-2.236C77.735,69.375,76.732,68.372,75.5,68.372z"/>
		<circle fill="#000000" cx="73.547" cy="76.08" r="2.736"/>
		<path fill="#000000" d="M73.547,79.319c-1.785,0-3.238-1.453-3.238-3.239c0-1.786,1.452-3.238,3.238-3.238    c1.786,0,3.239,1.452,3.239,3.238C76.787,77.866,75.333,79.319,73.547,79.319z M73.547,73.846c-1.232,0-2.235,1.002-2.235,2.235    c0,1.233,1.002,2.236,2.235,2.236c1.233,0,2.236-1.002,2.236-2.236C75.783,74.849,74.781,73.846,73.547,73.846z"/>
		<circle fill="#000000" cx="71.367" cy="81.158" r="2.736"/>
		<path fill="#000000" d="M71.367,84.396c-1.785,0-3.239-1.453-3.239-3.239c0-1.786,1.453-3.238,3.239-3.238    c1.786,0,3.238,1.452,3.238,3.238C74.605,82.943,73.153,84.396,71.367,84.396z M71.367,78.923c-1.233,0-2.236,1.002-2.236,2.235    c0,1.233,1.002,2.236,2.236,2.236c1.232,0,2.235-1.002,2.235-2.236C73.602,79.925,72.599,78.923,71.367,78.923z"/>
		<circle fill="#000000" cx="31.868" cy="84.462" r="3.076"/>
		<path fill="#000000" d="M31.868,88.039c-1.973,0-3.577-1.606-3.577-3.577c0-1.972,1.605-3.577,3.577-3.577    s3.577,1.606,3.577,3.577C35.445,86.434,33.841,88.039,31.868,88.039z M31.868,81.887c-1.42,0-2.574,1.154-2.574,2.574    s1.154,2.574,2.574,2.574c1.42,0,2.574-1.154,2.574-2.574S33.288,81.887,31.868,81.887z"/>
		<circle fill="#000000" cx="35.702" cy="88.94" r="3.076"/>
		<path fill="#000000" d="M35.702,92.517c-1.973,0-3.577-1.605-3.577-3.576c0-1.972,1.605-3.577,3.577-3.577    c1.973,0,3.577,1.606,3.577,3.577C39.279,90.912,37.675,92.517,35.702,92.517z M35.702,86.366c-1.42,0-2.574,1.154-2.574,2.574    c0,1.419,1.154,2.573,2.574,2.573c1.42,0,2.574-1.154,2.574-2.573C38.277,87.52,37.122,86.366,35.702,86.366z"/>
		<circle fill="#000000" cx="40.168" cy="92.015" r="3.076"/>
		<path fill="#000000" d="M40.167,95.593c-1.973,0-3.577-1.606-3.577-3.577c0-1.972,1.605-3.576,3.577-3.576    c1.973,0,3.577,1.605,3.577,3.576C43.744,93.987,42.139,95.593,40.167,95.593z M40.167,89.442c-1.42,0-2.574,1.154-2.574,2.573    c0,1.42,1.154,2.574,2.574,2.574c1.42,0,2.574-1.154,2.574-2.574C42.741,90.596,41.586,89.442,40.167,89.442z"/>
		<circle fill="#000000" cx="45.17" cy="95.092" r="3.076"/>
		<path fill="#000000" d="M45.17,98.669c-1.973,0-3.577-1.606-3.577-3.577c0-1.972,1.605-3.577,3.577-3.577    c1.973,0,3.577,1.606,3.577,3.577C48.747,97.064,47.143,98.669,45.17,98.669z M45.17,92.517c-1.42,0-2.574,1.154-2.574,2.574    s1.154,2.574,2.574,2.574s2.574-1.154,2.574-2.574S46.589,92.517,45.17,92.517z"/>
		<circle fill="#000000" cx="68.071" cy="85.864" r="3.076"/>
		<path fill="#000000" d="M68.071,89.442c-1.973,0-3.577-1.606-3.577-3.577s1.606-3.577,3.577-3.577s3.577,1.606,3.577,3.577    S70.044,89.442,68.071,89.442z M68.071,83.29c-1.42,0-2.574,1.154-2.574,2.574s1.154,2.574,2.574,2.574s2.574-1.154,2.574-2.574    S69.491,83.29,68.071,83.29z"/>
		<circle fill="#000000" cx="64.996" cy="90.27" r="3.076"/>
		<path fill="#000000" d="M64.996,93.848c-1.973,0-3.577-1.605-3.577-3.576s1.606-3.577,3.577-3.577    c1.972,0,3.577,1.606,3.577,3.577S66.968,93.848,64.996,93.848z M64.996,87.696c-1.42,0-2.574,1.154-2.574,2.574    c0,1.419,1.154,2.573,2.574,2.573c1.42,0,2.574-1.154,2.574-2.573C67.57,88.851,66.416,87.696,64.996,87.696z"/>
		<circle fill="#000000" cx="60.548" cy="93.347" r="3.076"/>
		<path fill="#000000" d="M60.548,96.924c-1.973,0-3.576-1.606-3.576-3.577c0-1.972,1.605-3.576,3.576-3.576    c1.972,0,3.577,1.605,3.577,3.576C64.126,95.319,62.521,96.924,60.548,96.924z M60.548,90.773c-1.419,0-2.573,1.154-2.573,2.573    c0,1.42,1.154,2.574,2.573,2.574c1.42,0,2.574-1.154,2.574-2.574C63.122,91.927,61.968,90.773,60.548,90.773z"/>
		<circle fill="#000000" cx="55.732" cy="95.092" r="3.076"/>
		<path fill="#000000" d="M55.731,98.669c-1.973,0-3.576-1.606-3.576-3.577c0-1.972,1.605-3.577,3.576-3.577    c1.972,0,3.577,1.606,3.577,3.577C59.308,97.064,57.703,98.669,55.731,98.669z M55.731,92.517c-1.419,0-2.573,1.154-2.573,2.574    s1.154,2.574,2.573,2.574c1.42,0,2.574-1.154,2.574-2.574S57.15,92.517,55.731,92.517z"/>
		<circle fill="#000000" cx="50.28" cy="96.423" r="3.076"/>
		<path fill="#000000" d="M50.28,100c-1.973,0-3.577-1.606-3.577-3.577s1.606-3.577,3.577-3.577c1.972,0,3.577,1.606,3.577,3.577    S52.251,100,50.28,100z M50.28,93.848c-1.42,0-2.574,1.154-2.574,2.574s1.155,2.574,2.574,2.574s2.574-1.154,2.574-2.574    S51.7,93.848,50.28,93.848z"/>
	</g>
</g>
</svg>