<svg xmlns="http://www.w3.org/2000/svg" xmlns:xlink="http://www.w3.org/1999/xlink" version="1.1" id="Layer_1" x="0px" y="0px" width="100px" height="100px" viewBox="0 0 100 100" enable-background="new 0 0 100 100" xml:space="preserve">
<path d="M90.96,44.66c0-3.177-2.518-5.75-5.669-5.872c-0.457-2.607-1.169-5.125-2.158-7.508c2.622-1.76,3.412-5.278,1.731-7.987  c-1.686-2.714-5.213-3.571-7.96-1.976c-1.377-1.567-2.871-3.023-4.496-4.33c1.415-2.822,0.383-6.267-2.403-7.803  c-2.754-1.52-6.185-0.585-7.828,2.055c-1.891-0.687-3.842-1.229-5.864-1.592c-0.21-3.063-2.736-5.492-5.854-5.492  c-3.054,0-5.537,2.336-5.834,5.313c-2.737,0.403-5.374,1.099-7.875,2.082c-1.841-2.263-5.106-2.884-7.658-1.301  c-2.474,1.538-3.399,4.608-2.333,7.223c-1.753,1.471-3.361,3.103-4.803,4.877c-2.633-0.854-5.581,0.244-6.97,2.76  c-1.351,2.456-0.759,5.452,1.25,7.241c-0.797,2.114-1.4,4.319-1.791,6.603c-2.573,0.633-4.489,2.94-4.489,5.707  c0,2.723,1.857,4.995,4.37,5.668c0.445,3.021,1.227,5.931,2.375,8.654c-1.713,1.901-2.067,4.759-0.651,7.044  c1.426,2.29,4.16,3.237,6.634,2.528c1.61,1.861,3.408,3.543,5.366,5.039c-0.605,2.521,0.484,5.229,2.859,6.539  c2.416,1.328,5.333,0.773,7.13-1.146c1.791,0.625,3.636,1.114,5.542,1.451c-1.509,1.656-2.454,3.838-2.454,6.254  c0,5.159,4.186,9.334,9.332,9.334c5.159,0,9.333-4.175,9.333-9.334c0-2.492-0.993-4.743-2.585-6.415  c2.483-0.515,4.864-1.298,7.131-2.297c1.872,2.095,5.021,2.616,7.486,1.084c2.545-1.581,3.442-4.775,2.235-7.429  c1.63-1.481,3.12-3.104,4.455-4.862c2.74,1.144,5.95,0.092,7.418-2.57c1.5-2.722,0.609-6.079-1.944-7.752  c0.639-1.91,1.104-3.893,1.418-5.932C88.502,50.34,90.96,47.797,90.96,44.66z M48.892,86.227c-1.256,0-2.279-1.023-2.279-2.279  s1.023-2.273,2.279-2.273c1.254,0,2.272,1.018,2.272,2.273S50.146,86.227,48.892,86.227z M72.174,69.292  c-1.882-1.364-4.471-1.544-6.565-0.24c-2.176,1.352-3.143,3.882-2.63,6.251c-3.021,1.311-6.272,2.191-9.68,2.548  c-0.901-0.289-1.842-0.486-2.84-0.486c-1.058,0-2.061,0.215-3.011,0.54c-2.771-0.208-5.443-0.746-7.979-1.592  c0.591-2.512-0.499-5.2-2.87-6.508c-2.398-1.32-5.302-0.776-7.104,1.122c-1.513-1.192-2.909-2.519-4.191-3.954  c1.812-1.899,2.21-4.835,0.761-7.168c-1.451-2.335-4.27-3.285-6.782-2.49c-0.891-2.217-1.53-4.556-1.927-6.979  c2.52-0.67,4.384-2.948,4.384-5.676c0-2.689-1.811-4.936-4.273-5.642c0.338-1.834,0.844-3.607,1.473-5.324  c2.472,0.521,5.088-0.571,6.372-2.897c1.252-2.27,0.827-4.987-0.83-6.798c1.238-1.494,2.615-2.866,4.095-4.12  c1.894,1.485,4.574,1.73,6.735,0.387c2.092-1.297,3.081-3.691,2.698-5.978c2.246-0.87,4.61-1.493,7.063-1.857  c0.917,2.069,2.98,3.513,5.384,3.513c2.342,0,4.345-1.374,5.297-3.35c1.91,0.347,3.756,0.863,5.537,1.523  c-0.081,2.157,1.006,4.281,3.024,5.39c1.986,1.101,4.318,0.904,6.085-0.269c1.59,1.269,3.053,2.68,4.382,4.216  c-1.055,1.821-1.122,4.14,0.069,6.054c1.196,1.928,3.323,2.9,5.439,2.747c0.96,2.276,1.637,4.693,2.066,7.197  c-1.888,0.983-3.188,2.935-3.188,5.208c0,2.317,1.351,4.303,3.295,5.264c-0.287,1.916-0.723,3.778-1.323,5.571  c-2.206-0.139-4.398,0.956-5.534,3.02c-1.172,2.123-0.894,4.649,0.503,6.453C74.928,66.525,73.611,67.97,72.174,69.292z"/>
</svg>