<?xml version="1.0" encoding="utf-8"?>
<!-- Generator: Adobe Illustrator 17.1.0, SVG Export Plug-In . SVG Version: 6.00 Build 0)  -->
<!DOCTYPE svg PUBLIC "-//W3C//DTD SVG 1.1//EN" "http://www.w3.org/Graphics/SVG/1.1/DTD/svg11.dtd">
<svg version="1.1" id="Layer_1" xmlns="http://www.w3.org/2000/svg" xmlns:xlink="http://www.w3.org/1999/xlink" x="0px" y="0px"
	 viewBox="0 0 400 400" enable-background="new 0 0 400 400" xml:space="preserve">
<path fill="#8E8E8E" d="M200,399.9c110.4,0,199.9-89.5,199.9-199.9C399.9,89.6,310.4,0.1,200,0.1C89.6,0.1,0.1,89.6,0.1,200
	C0.1,310.4,89.6,399.9,200,399.9"/>
<path fill="#FBFBFB" d="M200,103.3c-53.4,0-96.7,43.3-96.7,96.7c0,39.6,23.8,73.6,57.9,88.6c-0.3-6.7-0.1-14.9,1.7-22.2
	c1.9-7.8,12.4-52.7,12.4-52.7s-3.1-6.2-3.1-15.3c0-14.3,8.3-25,18.7-25c8.8,0,13.1,6.6,13.1,14.5c0,8.8-5.6,22.1-8.5,34.3
	c-2.4,10.3,5.1,18.6,15.3,18.6c18.3,0,30.7-23.5,30.7-51.4c0-21.2-14.3-37.1-40.2-37.1c-29.3,0-47.6,21.9-47.6,46.3
	c0,8.4,2.5,14.4,6.4,19c1.8,2.1,2,3,1.4,5.4c-0.5,1.8-1.5,6.1-2,7.8c-0.6,2.4-2.6,3.3-4.8,2.4c-13.5-5.5-19.8-20.3-19.8-37
	c0-27.5,23.2-60.4,69.1-60.4c36.9,0,61.2,26.7,61.2,55.4c0,38-21.1,66.3-52.2,66.3c-10.4,0-20.3-5.6-23.6-12.1
	c0,0-5.6,22.3-6.8,26.6c-2,7.5-6.1,14.9-9.7,20.7c8.7,2.6,17.9,4,27.4,4c53.4,0,96.7-43.3,96.7-96.7
	C296.7,146.6,253.4,103.3,200,103.3"/>
</svg>
