<svg xmlns="http://www.w3.org/2000/svg" xmlns:xlink="http://www.w3.org/1999/xlink" version="1.1" id="Your_Icon" x="0px" y="0px" width="100px" height="100px" viewBox="0 0 100 100" enable-background="new 0 0 100 100" xml:space="preserve">
<path d="M97.761,43.282c-4.961,0-8.095,1.397-10.631,3.043c0.317,0.23,0.628,0.461,0.933,0.689c1.128,0.847,2.092,1.553,3.138,2.142  c1.958-0.964,4.001-1.396,6.561-1.396c1.236,0,2.239-1.003,2.239-2.239C100,44.288,98.997,43.282,97.761,43.282z"/>
<path d="M8.8,50.844c-1.958,0.962-4.001,1.396-6.561,1.396C1.005,52.239,0,53.243,0,54.478s1.005,2.239,2.239,2.239  c4.962,0,8.095-1.398,10.632-3.044c-0.317-0.23-0.628-0.46-0.932-0.689C10.811,52.139,9.847,51.432,8.8,50.844z"/>
<path d="M27.985,58.129C26.39,58.26,25,58.228,23.508,58.062v7.783c0,1.235,1.004,2.239,2.238,2.239  c1.235,0,2.239-1.004,2.239-2.239V58.129z"/>
<path d="M51.868,58.13c-1.602,0.13-2.991,0.098-4.478-0.066v14.324c0,1.235,1.006,2.239,2.239,2.239  c1.235,0,2.238-1.004,2.238-2.239V58.13z"/>
<path d="M75.752,58.129c-1.586,0.131-2.979,0.099-4.478-0.065v7.781c0,1.235,1.006,2.239,2.238,2.239  c1.236,0,2.239-1.004,2.239-2.239V58.129z"/>
<path d="M97.761,52.239c-2.717,0-4.851-0.487-6.92-1.579c-1.274-0.673-2.418-1.51-3.675-2.451c-0.567-0.426-1.16-0.86-1.772-1.289  c-1.954-1.367-4.437-2.815-8.149-3.378v4.532c1.271,0.254,2.414,0.662,3.557,1.264c1.272,0.672,2.42,1.509,3.679,2.453  c0.565,0.426,1.157,0.857,1.77,1.286c2.699,1.891,5.963,3.64,11.512,3.64c1.236,0,2.239-1.005,2.239-2.239  S98.997,52.239,97.761,52.239z"/>
<path d="M67.321,49.157c0.793-0.389,1.606-0.689,2.46-0.911v-4.579c-2.807,0.536-4.871,1.586-6.532,2.661  c0.316,0.23,0.625,0.459,0.927,0.686C65.307,47.861,66.273,48.57,67.321,49.157z"/>
<path d="M71.274,50.544c1.388,0.23,3.017,0.267,4.478,0.102v-16.49c0-1.235-1.003-2.239-2.239-2.239  c-1.232,0-2.238,1.004-2.238,2.239V50.544z"/>
<path d="M19.56,49.157c0.792-0.388,1.602-0.688,2.456-0.909v-4.58c-2.805,0.538-4.866,1.586-6.526,2.66  c0.316,0.23,0.625,0.458,0.928,0.686C17.548,47.861,18.515,48.57,19.56,49.157z"/>
<path d="M23.508,50.544c1.38,0.23,3.011,0.265,4.478,0.102v-16.49c0-1.235-1.004-2.239-2.239-2.239  c-1.234,0-2.238,1.004-2.238,2.239V50.544z"/>
<path d="M56.562,50.844c-1.213,0.597-2.439,0.977-3.832,1.192c-2.021,0.314-4.312,0.266-6.239-0.143  c-1.21-0.26-2.326-0.663-3.411-1.236c-1.274-0.67-2.417-1.507-3.673-2.448c-0.568-0.426-1.161-0.86-1.774-1.289  c-1.955-1.367-4.44-2.818-8.154-3.378v4.532c1.272,0.253,2.418,0.66,3.562,1.264c1.278,0.674,2.423,1.509,3.681,2.453  c0.565,0.425,1.156,0.857,1.768,1.284c1.958,1.372,4.47,2.847,8.265,3.4c1.922,0.28,3.579,0.333,5.782,0.091  c3.616-0.396,6.129-1.621,8.099-2.892c-0.318-0.23-0.628-0.461-0.935-0.689C58.57,52.139,57.606,51.433,56.562,50.844z"/>
<path d="M2.239,47.76c2.717,0,4.852,0.486,6.921,1.58c1.274,0.673,2.418,1.509,3.675,2.451c0.567,0.426,1.16,0.858,1.772,1.287  c1.956,1.369,4.467,2.844,8.262,3.397c1.93,0.28,3.596,0.331,5.781,0.091c3.616-0.398,6.13-1.622,8.101-2.896  c-0.315-0.229-0.624-0.459-0.927-0.685c-1.129-0.847-2.096-1.556-3.145-2.145c-1.212,0.598-2.44,0.979-3.834,1.195  c-2.046,0.314-4.325,0.263-6.24-0.146c-1.211-0.257-2.324-0.659-3.405-1.23c-1.272-0.67-2.419-1.507-3.679-2.451  c-0.566-0.426-1.158-0.858-1.77-1.286c-2.699-1.891-5.963-3.641-11.513-3.641C1.005,43.282,0,44.288,0,45.521  C0,46.757,1.005,47.76,2.239,47.76z"/>
<path d="M43.44,49.154c0.79-0.388,1.604-0.688,2.458-0.911v-4.578c-2.808,0.538-4.869,1.585-6.53,2.66  c0.317,0.23,0.63,0.461,0.935,0.689C41.429,47.861,42.394,48.567,43.44,49.154z"/>
<path d="M47.391,50.544c1.388,0.23,3.023,0.267,4.478,0.102V27.612c0-1.235-1.003-2.239-2.238-2.239  c-1.233,0-2.239,1.004-2.239,2.239V50.544z"/>
<path d="M80.44,50.841c-1.211,0.598-2.438,0.979-3.827,1.195c-2.038,0.314-4.318,0.266-6.24-0.143  c-1.209-0.257-2.326-0.66-3.41-1.233c-1.277-0.672-2.423-1.507-3.682-2.451c-0.565-0.426-1.157-0.857-1.769-1.286  c-1.954-1.367-4.439-2.818-8.151-3.381v4.532c1.272,0.254,2.416,0.662,3.561,1.269c1.272,0.67,2.416,1.506,3.672,2.448  c0.568,0.426,1.163,0.86,1.774,1.289c1.958,1.37,4.471,2.844,8.268,3.396c1.941,0.283,3.612,0.33,5.78,0.089  c3.615-0.397,6.128-1.622,8.096-2.893c-0.314-0.23-0.625-0.459-0.929-0.687C82.454,52.139,81.486,51.43,80.44,50.841z"/>
</svg>